<svg xmlns="http://www.w3.org/2000/svg" xmlns:xlink="http://www.w3.org/1999/xlink" width="300" zoomAndPan="magnify" viewBox="0 0 224.87999 149.999998" height="200" preserveAspectRatio="xMidYMid meet" version="1.2"><defs><clipPath id="cec0ab390c"><path d="M 63 117 L 85 117 L 85 148.304688 L 63 148.304688 Z M 63 117 "/></clipPath><clipPath id="e0ae9de7ad"><path d="M 8.226562 2 L 131.910156 2 L 131.910156 132 L 8.226562 132 Z M 8.226562 2 "/></clipPath></defs><g id="0e3e463a9b"><g clip-rule="nonzero" clip-path="url(#cec0ab390c)"><path style=" stroke:none;fill-rule:nonzero;fill:#edb23d;fill-opacity:1;" d="M 63.304688 148.300781 L 63.304688 131.578125 C 71.554688 128.765625 78.835938 123.863281 84.519531 117.503906 L 84.519531 148.300781 L 63.304688 148.300781 "/></g><path style=" stroke:none;fill-rule:nonzero;fill:#edb23d;fill-opacity:1;" d="M 97.65625 95.699219 L 95.917969 95.699219 C 93.960938 103.941406 89.976562 111.390625 84.515625 117.5 L 98.804688 117.5 C 95.742188 114.625 93.824219 110.539062 93.824219 106.003906 C 93.824219 102.066406 95.269531 98.464844 97.65625 95.699219 "/><g clip-rule="nonzero" clip-path="url(#e0ae9de7ad)"><path style=" stroke:none;fill-rule:nonzero;fill:#00646e;fill-opacity:1;" d="M 109.601562 94.273438 C 116.070312 94.273438 121.332031 99.535156 121.332031 106.003906 C 121.332031 112.46875 116.070312 117.730469 109.601562 117.730469 C 103.132812 117.730469 97.871094 112.46875 97.871094 106.003906 C 97.871094 99.535156 103.132812 94.273438 109.601562 94.273438 Z M 79.644531 4.757812 C 74.359375 7.101562 70.6875 11.011719 69.027344 16.066406 C 67.136719 21.8125 67.722656 28.1875 70.667969 34.019531 C 72.144531 36.945312 74.027344 39.632812 75.992188 42.359375 C 77.902344 45.019531 79.960938 47.734375 82.097656 50.433594 C 82.175781 50.53125 82.269531 50.613281 82.375 50.671875 C 87.820312 58.820312 90.699219 68.324219 90.699219 78.164062 C 90.699219 83.964844 89.707031 89.644531 87.746094 95.046875 L 85.167969 95.046875 L 85.167969 64.25 L 62.652344 64.25 L 62.652344 95.046875 L 30.234375 95.046875 L 30.234375 118.152344 L 62.652344 118.152344 L 62.652344 122.800781 C 55.929688 126.042969 48.707031 127.6875 41.179688 127.6875 C 29.476562 127.6875 18.125 123.527344 9.207031 115.980469 L 8.285156 116.894531 C 8.738281 117.429688 9.214844 117.972656 9.710938 118.507812 L 9.746094 118.542969 C 19.148438 127.1875 31.363281 131.949219 44.140625 131.949219 C 50.863281 131.949219 57.394531 130.65625 63.554688 128.105469 C 70.429688 125.265625 76.71875 120.839844 81.746094 115.3125 C 86.800781 109.753906 90.617188 103.039062 92.785156 95.886719 C 94.230469 91.125 94.964844 86.15625 94.964844 81.121094 C 94.964844 68.882812 90.550781 57.0625 82.539062 47.832031 C 80.449219 45.152344 78.472656 42.5 76.667969 39.945312 C 74.558594 36.964844 72.90625 34.402344 71.683594 31.597656 C 68.941406 25.292969 69.351562 17.863281 72.734375 12.660156 C 75.183594 8.894531 79.945312 6.019531 85.472656 4.96875 C 90.53125 4.007812 96.539062 4.457031 101.949219 6.203125 C 114.144531 10.136719 121.015625 22.617188 124.027344 29.707031 C 128.605469 40.488281 130.359375 52.921875 129.089844 65.65625 C 128.253906 74.0625 125.457031 85.746094 116.933594 93.941406 C 114.792969 92.636719 112.285156 91.882812 109.601562 91.882812 C 101.816406 91.882812 95.480469 98.21875 95.480469 106.003906 C 95.480469 113.789062 101.816406 120.121094 109.601562 120.121094 C 117.386719 120.121094 123.722656 113.789062 123.722656 106.003906 C 123.722656 101.613281 121.707031 97.6875 118.554688 95.09375 C 119.410156 94.257812 120.210938 93.398438 120.9375 92.535156 C 127.269531 84.964844 130.871094 74.121094 131.351562 61.171875 C 131.863281 47.347656 129.066406 34.351562 123.257812 23.589844 C 120.242188 18.003906 116.585938 13.382812 112.390625 9.847656 C 108.003906 6.148438 102.683594 3.84375 96.578125 2.996094 C 90.03125 2.082031 84.335938 2.675781 79.644531 4.757812 "/></g><path style=" stroke:none;fill-rule:nonzero;fill:#edb23d;fill-opacity:1;" d="M 109.601562 97.007812 C 104.632812 97.007812 100.605469 101.035156 100.605469 106.003906 C 100.605469 110.96875 104.632812 114.996094 109.601562 114.996094 C 114.570312 114.996094 118.59375 110.96875 118.59375 106.003906 C 118.59375 101.035156 114.570312 97.007812 109.601562 97.007812 "/><g style="fill:#d5f1f0;fill-opacity:1;"><g transform="translate(125.361478, 115.695335)"><path style="stroke:none" d="M 11.257812 1.332031 C 9.167969 1.332031 7.269531 0.875 5.570312 -0.0390625 C 3.851562 -0.960938 2.5 -2.242188 1.515625 -3.882812 C 0.53125 -5.527344 0.0390625 -7.375 0.0390625 -9.425781 C 0.0390625 -11.480469 0.53125 -13.328125 1.515625 -14.96875 C 2.5 -16.609375 3.851562 -17.890625 5.570312 -18.816406 C 7.269531 -19.730469 9.175781 -20.1875 11.285156 -20.1875 C 13.058594 -20.1875 14.671875 -19.871094 16.121094 -19.242188 C 17.585938 -18.605469 18.820312 -17.683594 19.820312 -16.484375 L 20.433594 -15.746094 L 16.160156 -11.800781 L 15.476562 -12.589844 C 14.40625 -13.832031 13.078125 -14.449219 11.5 -14.449219 C 10.507812 -14.449219 9.632812 -14.238281 8.871094 -13.8125 C 8.121094 -13.390625 7.535156 -12.808594 7.117188 -12.058594 C 6.691406 -11.296875 6.476562 -10.417969 6.476562 -9.425781 C 6.476562 -8.433594 6.691406 -7.558594 7.117188 -6.796875 C 7.535156 -6.046875 8.121094 -5.460938 8.871094 -5.042969 C 9.632812 -4.617188 10.507812 -4.402344 11.5 -4.402344 C 13.078125 -4.402344 14.402344 -5.03125 15.472656 -6.285156 L 16.15625 -7.082031 L 20.429688 -3.140625 L 19.824219 -2.402344 C 18.824219 -1.179688 17.582031 -0.25 16.105469 0.386719 C 14.648438 1.019531 13.03125 1.332031 11.257812 1.332031 Z M 11.257812 -0.6875 C 12.753906 -0.6875 14.101562 -0.945312 15.300781 -1.464844 C 16.480469 -1.976562 17.46875 -2.714844 18.261719 -3.683594 L 19.042969 -3.042969 L 18.359375 -2.300781 L 15.558594 -4.886719 L 16.242188 -5.628906 L 17.007812 -4.972656 C 15.53125 -3.246094 13.695312 -2.382812 11.5 -2.382812 C 10.160156 -2.382812 8.953125 -2.683594 7.882812 -3.28125 C 6.800781 -3.882812 5.957031 -4.726562 5.355469 -5.808594 C 4.757812 -6.878906 4.457031 -8.085938 4.457031 -9.425781 C 4.457031 -10.769531 4.757812 -11.976562 5.355469 -13.042969 C 5.957031 -14.125 6.800781 -14.96875 7.882812 -15.574219 C 8.953125 -16.171875 10.160156 -16.472656 11.5 -16.472656 C 13.695312 -16.472656 15.527344 -15.617188 17.003906 -13.914062 L 16.242188 -13.253906 L 15.558594 -13.996094 L 18.359375 -16.578125 L 19.042969 -15.835938 L 18.265625 -15.191406 C 17.472656 -16.144531 16.488281 -16.878906 15.3125 -17.390625 C 14.121094 -17.910156 12.78125 -18.167969 11.285156 -18.167969 C 9.515625 -18.167969 7.929688 -17.789062 6.523438 -17.035156 C 5.136719 -16.289062 4.042969 -15.253906 3.25 -13.929688 C 2.457031 -12.609375 2.0625 -11.109375 2.0625 -9.425781 C 2.0625 -7.746094 2.457031 -6.246094 3.25 -4.921875 C 4.042969 -3.601562 5.136719 -2.566406 6.523438 -1.820312 C 7.929688 -1.0625 9.507812 -0.6875 11.257812 -0.6875 Z M 11.257812 -0.6875 "/></g></g><g style="fill:#d5f1f0;fill-opacity:1;"><g transform="translate(145.104225, 115.695335)"><path style="stroke:none" d="M 2.234375 -19.863281 L 7.609375 -19.863281 L 7.609375 -3.554688 L 6.597656 -3.554688 L 6.597656 -4.566406 L 17.0625 -4.566406 L 17.0625 1.011719 L 1.226562 1.011719 L 1.226562 -19.863281 Z M 2.234375 -17.84375 L 2.234375 -18.855469 L 3.246094 -18.855469 L 3.246094 0 L 2.234375 0 L 2.234375 -1.011719 L 16.054688 -1.011719 L 16.054688 0 L 15.042969 0 L 15.042969 -3.554688 L 16.054688 -3.554688 L 16.054688 -2.546875 L 5.589844 -2.546875 L 5.589844 -18.855469 L 6.597656 -18.855469 L 6.597656 -17.84375 Z M 2.234375 -17.84375 "/></g></g><g style="fill:#d5f1f0;fill-opacity:1;"><g transform="translate(161.372467, 115.695335)"><path style="stroke:none" d="M 1.226562 -19.863281 L 7.609375 -19.863281 L 7.609375 1.011719 L 1.226562 1.011719 Z M 3.246094 -17.84375 L 3.246094 -1.011719 L 5.589844 -1.011719 L 5.589844 -17.84375 Z M 3.246094 -17.84375 "/></g></g><g style="fill:#d5f1f0;fill-opacity:1;"><g transform="translate(170.206876, 115.695335)"><path style="stroke:none" d="M 20.539062 -18.855469 L 20.539062 1.011719 L 15.46875 1.011719 L 5.765625 -10.804688 L 6.546875 -11.449219 L 7.554688 -11.449219 L 7.554688 1.011719 L 1.226562 1.011719 L 1.226562 -19.863281 L 6.324219 -19.863281 L 16 -8.046875 L 15.21875 -7.40625 L 14.207031 -7.40625 L 14.207031 -19.863281 L 20.539062 -19.863281 Z M 18.519531 -18.855469 L 19.527344 -18.855469 L 19.527344 -17.84375 L 15.21875 -17.84375 L 15.21875 -18.855469 L 16.226562 -18.855469 L 16.226562 -4.578125 L 5.0625 -18.214844 L 5.84375 -18.855469 L 5.84375 -17.84375 L 2.234375 -17.84375 L 2.234375 -18.855469 L 3.246094 -18.855469 L 3.246094 0 L 2.234375 0 L 2.234375 -1.011719 L 6.546875 -1.011719 L 6.546875 0 L 5.535156 0 L 5.535156 -14.269531 L 16.726562 -0.640625 L 15.945312 0 L 15.945312 -1.011719 L 19.527344 -1.011719 L 19.527344 0 L 18.519531 0 Z M 18.519531 -18.855469 "/></g></g><g style="fill:#d5f1f0;fill-opacity:1;"><g transform="translate(191.969693, 115.695335)"><path style="stroke:none" d="M 9.832031 -6.707031 L 7.300781 -4.066406 L 6.570312 -4.765625 L 7.582031 -4.765625 L 7.582031 1.011719 L 1.226562 1.011719 L 1.226562 -19.863281 L 7.582031 -19.863281 L 7.582031 -10.046875 L 6.570312 -10.046875 L 5.839844 -10.742188 L 14.488281 -19.863281 L 22.089844 -19.863281 L 12.699219 -9.761719 L 11.960938 -10.449219 L 12.75 -11.078125 L 22.316406 1.011719 L 14.65625 1.011719 L 8.320312 -6.769531 L 9.105469 -7.40625 Z M 9.164062 -8.929688 L 15.921875 -0.636719 L 15.136719 0 L 15.136719 -1.011719 L 20.226562 -1.011719 L 20.226562 0 L 19.4375 0.625 L 10.628906 -10.503906 L 19.03125 -19.542969 L 19.769531 -18.855469 L 19.769531 -17.84375 L 14.921875 -17.84375 L 14.921875 -18.855469 L 15.65625 -18.160156 L 5.5625 -7.511719 L 5.5625 -18.855469 L 6.570312 -18.855469 L 6.570312 -17.84375 L 2.234375 -17.84375 L 2.234375 -18.855469 L 3.246094 -18.855469 L 3.246094 0 L 2.234375 0 L 2.234375 -1.011719 L 6.570312 -1.011719 L 6.570312 0 L 5.5625 0 L 5.5625 -5.171875 L 8.375 -8.105469 Z M 9.164062 -8.929688 "/></g></g><g style="fill:#00646e;fill-opacity:1;"><g transform="translate(125.361478, 115.695335)"><path style="stroke:none" d="M 11.265625 0.328125 C 9.335938 0.328125 7.597656 -0.0859375 6.046875 -0.921875 C 4.492188 -1.765625 3.269531 -2.925781 2.375 -4.40625 C 1.488281 -5.882812 1.046875 -7.554688 1.046875 -9.421875 C 1.046875 -11.296875 1.488281 -12.972656 2.375 -14.453125 C 3.269531 -15.929688 4.492188 -17.085938 6.046875 -17.921875 C 7.597656 -18.753906 9.34375 -19.171875 11.28125 -19.171875 C 12.914062 -19.171875 14.394531 -18.882812 15.71875 -18.3125 C 17.039062 -17.738281 18.148438 -16.914062 19.046875 -15.84375 L 16.25 -13.25 C 14.96875 -14.726562 13.382812 -15.46875 11.5 -15.46875 C 10.332031 -15.46875 9.289062 -15.207031 8.375 -14.6875 C 7.457031 -14.175781 6.742188 -13.460938 6.234375 -12.546875 C 5.722656 -11.628906 5.46875 -10.585938 5.46875 -9.421875 C 5.46875 -8.253906 5.722656 -7.210938 6.234375 -6.296875 C 6.742188 -5.378906 7.457031 -4.664062 8.375 -4.15625 C 9.289062 -3.644531 10.332031 -3.390625 11.5 -3.390625 C 13.382812 -3.390625 14.96875 -4.132812 16.25 -5.625 L 19.046875 -3.046875 C 18.148438 -1.953125 17.035156 -1.113281 15.703125 -0.53125 C 14.378906 0.0390625 12.898438 0.328125 11.265625 0.328125 Z M 11.265625 0.328125 "/></g></g><g style="fill:#00646e;fill-opacity:1;"><g transform="translate(145.104225, 115.695335)"><path style="stroke:none" d="M 2.234375 -18.859375 L 6.59375 -18.859375 L 6.59375 -3.5625 L 16.0625 -3.5625 L 16.0625 0 L 2.234375 0 Z M 2.234375 -18.859375 "/></g></g><g style="fill:#00646e;fill-opacity:1;"><g transform="translate(161.372467, 115.695335)"><path style="stroke:none" d="M 2.234375 -18.859375 L 6.59375 -18.859375 L 6.59375 0 L 2.234375 0 Z M 2.234375 -18.859375 "/></g></g><g style="fill:#00646e;fill-opacity:1;"><g transform="translate(170.206876, 115.695335)"><path style="stroke:none" d="M 19.53125 -18.859375 L 19.53125 0 L 15.953125 0 L 6.546875 -11.453125 L 6.546875 0 L 2.234375 0 L 2.234375 -18.859375 L 5.84375 -18.859375 L 15.21875 -7.40625 L 15.21875 -18.859375 Z M 19.53125 -18.859375 "/></g></g><g style="fill:#00646e;fill-opacity:1;"><g transform="translate(191.969693, 115.695335)"><path style="stroke:none" d="M 9.109375 -7.40625 L 6.578125 -4.765625 L 6.578125 0 L 2.234375 0 L 2.234375 -18.859375 L 6.578125 -18.859375 L 6.578125 -10.046875 L 14.921875 -18.859375 L 19.765625 -18.859375 L 11.953125 -10.453125 L 20.234375 0 L 15.140625 0 Z M 9.109375 -7.40625 "/></g></g><g style="fill:#ffedca;fill-opacity:1;"><g transform="translate(63.268781, 115.695335)"><path style="stroke:none" d="M 2.234375 -19.863281 L 10.800781 -19.863281 C 13.007812 -19.863281 14.964844 -19.4375 16.679688 -18.585938 C 18.421875 -17.71875 19.78125 -16.496094 20.753906 -14.910156 C 21.722656 -13.332031 22.207031 -11.503906 22.207031 -9.425781 C 22.207031 -7.351562 21.722656 -5.523438 20.753906 -3.941406 C 19.78125 -2.359375 18.421875 -1.132812 16.679688 -0.265625 C 14.964844 0.585938 13.007812 1.011719 10.800781 1.011719 L 1.226562 1.011719 L 1.226562 -19.863281 Z M 2.234375 -17.84375 L 2.234375 -18.855469 L 3.246094 -18.855469 L 3.246094 0 L 2.234375 0 L 2.234375 -1.011719 L 10.800781 -1.011719 C 12.691406 -1.011719 14.347656 -1.367188 15.777344 -2.078125 C 17.175781 -2.769531 18.261719 -3.746094 19.03125 -5 C 19.800781 -6.257812 20.1875 -7.730469 20.1875 -9.425781 C 20.1875 -11.121094 19.800781 -12.597656 19.03125 -13.855469 C 18.261719 -15.109375 17.175781 -16.082031 15.777344 -16.777344 C 14.347656 -17.488281 12.691406 -17.84375 10.800781 -17.84375 Z M 10.585938 -4.59375 C 12.203125 -4.59375 13.480469 -5.027344 14.40625 -5.894531 C 15.316406 -6.746094 15.769531 -7.921875 15.769531 -9.425781 C 15.769531 -10.929688 15.316406 -12.109375 14.40625 -12.957031 C 13.480469 -13.828125 12.203125 -14.261719 10.585938 -14.261719 L 6.597656 -14.261719 L 6.597656 -15.273438 L 7.609375 -15.273438 L 7.609375 -3.582031 L 6.597656 -3.582031 L 6.597656 -4.59375 Z M 10.585938 -2.570312 L 5.589844 -2.570312 L 5.589844 -16.28125 L 10.585938 -16.28125 C 12.738281 -16.28125 14.472656 -15.667969 15.789062 -14.433594 C 17.121094 -13.183594 17.789062 -11.515625 17.789062 -9.425781 C 17.789062 -7.339844 17.121094 -5.671875 15.789062 -4.421875 C 14.472656 -3.1875 12.738281 -2.570312 10.585938 -2.570312 Z M 10.585938 -2.570312 "/></g></g><g style="fill:#edb23d;fill-opacity:1;"><g transform="translate(63.268781, 115.695335)"><path style="stroke:none" d="M 2.234375 -18.859375 L 10.796875 -18.859375 C 12.847656 -18.859375 14.660156 -18.46875 16.234375 -17.6875 C 17.804688 -16.90625 19.023438 -15.800781 19.890625 -14.375 C 20.765625 -12.957031 21.203125 -11.304688 21.203125 -9.421875 C 21.203125 -7.535156 20.765625 -5.882812 19.890625 -4.46875 C 19.023438 -3.050781 17.804688 -1.953125 16.234375 -1.171875 C 14.660156 -0.390625 12.847656 0 10.796875 0 L 2.234375 0 Z M 10.59375 -3.578125 C 12.476562 -3.578125 13.976562 -4.101562 15.09375 -5.15625 C 16.21875 -6.207031 16.78125 -7.628906 16.78125 -9.421875 C 16.78125 -11.222656 16.21875 -12.648438 15.09375 -13.703125 C 13.976562 -14.753906 12.476562 -15.28125 10.59375 -15.28125 L 6.59375 -15.28125 L 6.59375 -3.578125 Z M 10.59375 -3.578125 "/></g></g><g style="fill:#000000;fill-opacity:1;"><g transform="translate(86.515573, 131.96348)"><path style="stroke:none" d="M 1.703125 -2.171875 C 1.035156 -2.171875 0.566406 -2.320312 0.296875 -2.625 C 0.0234375 -2.925781 -0.109375 -3.296875 -0.109375 -3.734375 C -0.109375 -4.054688 -0.0507812 -4.382812 0.0625 -4.71875 C 0.1875 -5.0625 0.347656 -5.375 0.546875 -5.65625 C 0.753906 -5.9375 0.984375 -6.164062 1.234375 -6.34375 C 1.492188 -6.519531 1.757812 -6.609375 2.03125 -6.609375 C 2.269531 -6.609375 2.476562 -6.523438 2.65625 -6.359375 C 2.832031 -6.203125 2.921875 -6.015625 2.921875 -5.796875 C 2.921875 -5.679688 2.898438 -5.585938 2.859375 -5.515625 C 2.785156 -5.367188 2.679688 -5.296875 2.546875 -5.296875 C 2.546875 -5.296875 2.503906 -5.304688 2.421875 -5.328125 C 2.296875 -5.410156 2.234375 -5.515625 2.234375 -5.640625 C 2.234375 -5.640625 2.242188 -5.679688 2.265625 -5.765625 L 2.265625 -5.8125 C 2.222656 -5.914062 2.144531 -5.96875 2.03125 -5.96875 C 1.90625 -5.96875 1.757812 -5.898438 1.59375 -5.765625 C 1.425781 -5.628906 1.257812 -5.453125 1.09375 -5.234375 C 0.925781 -5.015625 0.785156 -4.78125 0.671875 -4.53125 C 0.566406 -4.28125 0.515625 -4.03125 0.515625 -3.78125 C 0.515625 -3.664062 0.53125 -3.546875 0.5625 -3.421875 C 0.613281 -3.242188 0.738281 -3.09375 0.9375 -2.96875 C 1.132812 -2.84375 1.382812 -2.78125 1.6875 -2.78125 C 2.09375 -2.78125 2.566406 -2.945312 3.109375 -3.28125 C 3.648438 -3.625 4.179688 -4.222656 4.703125 -5.078125 C 4.765625 -5.171875 4.863281 -5.21875 5 -5.21875 C 5.050781 -5.21875 5.097656 -5.207031 5.140625 -5.1875 C 5.242188 -5.125 5.296875 -5.03125 5.296875 -4.90625 C 5.296875 -4.84375 5.28125 -4.785156 5.25 -4.734375 C 4.65625 -3.753906 4.046875 -3.082031 3.421875 -2.71875 C 2.796875 -2.351562 2.222656 -2.171875 1.703125 -2.171875 Z M 1.703125 -2.171875 "/></g></g><g style="fill:#000000;fill-opacity:1;"><g transform="translate(90.973538, 131.96348)"><path style="stroke:none" d="M -0.046875 -2.296875 C -0.304688 -2.472656 -0.4375 -2.78125 -0.4375 -3.21875 C -0.4375 -3.539062 -0.359375 -3.894531 -0.203125 -4.28125 C -0.046875 -4.664062 0.175781 -5.03125 0.46875 -5.375 C 0.757812 -5.726562 1.101562 -6.015625 1.5 -6.234375 C 1.90625 -6.460938 2.363281 -6.578125 2.875 -6.578125 C 2.957031 -6.578125 3.03125 -6.539062 3.09375 -6.46875 C 3.164062 -6.40625 3.203125 -6.332031 3.203125 -6.25 C 3.203125 -6.164062 3.164062 -6.085938 3.09375 -6.015625 C 3.03125 -5.953125 2.957031 -5.921875 2.875 -5.921875 C 2.445312 -5.921875 2.066406 -5.820312 1.734375 -5.625 C 1.398438 -5.425781 1.117188 -5.175781 0.890625 -4.875 C 0.660156 -4.582031 0.484375 -4.285156 0.359375 -3.984375 C 0.242188 -3.679688 0.1875 -3.425781 0.1875 -3.21875 C 0.1875 -2.945312 0.273438 -2.8125 0.453125 -2.8125 C 0.554688 -2.8125 0.679688 -2.863281 0.828125 -2.96875 C 1.046875 -3.132812 1.257812 -3.363281 1.46875 -3.65625 C 1.675781 -3.945312 1.867188 -4.253906 2.046875 -4.578125 C 2.222656 -4.898438 2.375 -5.179688 2.5 -5.421875 C 2.59375 -5.554688 2.691406 -5.625 2.796875 -5.625 C 2.910156 -5.625 3 -5.578125 3.0625 -5.484375 C 3.132812 -5.390625 3.148438 -5.285156 3.109375 -5.171875 C 3.046875 -5.015625 2.992188 -4.851562 2.953125 -4.6875 C 2.921875 -4.519531 2.894531 -4.351562 2.875 -4.1875 C 2.84375 -4.019531 2.820312 -3.867188 2.8125 -3.734375 C 2.800781 -3.609375 2.796875 -3.492188 2.796875 -3.390625 C 2.796875 -3.171875 2.816406 -3.019531 2.859375 -2.9375 C 2.910156 -2.851562 2.976562 -2.8125 3.0625 -2.8125 C 3.226562 -2.8125 3.425781 -2.921875 3.65625 -3.140625 C 3.894531 -3.367188 4.132812 -3.65625 4.375 -4 C 4.625 -4.351562 4.835938 -4.703125 5.015625 -5.046875 C 5.078125 -5.148438 5.171875 -5.203125 5.296875 -5.203125 C 5.347656 -5.203125 5.394531 -5.191406 5.4375 -5.171875 C 5.5625 -5.109375 5.625 -5.007812 5.625 -4.875 C 5.625 -4.863281 5.617188 -4.84375 5.609375 -4.8125 C 5.609375 -4.789062 5.601562 -4.765625 5.59375 -4.734375 C 5.070312 -3.785156 4.582031 -3.117188 4.125 -2.734375 C 3.675781 -2.347656 3.289062 -2.15625 2.96875 -2.15625 C 2.6875 -2.15625 2.460938 -2.273438 2.296875 -2.515625 C 2.140625 -2.753906 2.070312 -3.0625 2.09375 -3.4375 C 1.976562 -3.25 1.828125 -3.050781 1.640625 -2.84375 C 1.453125 -2.644531 1.253906 -2.476562 1.046875 -2.34375 C 0.847656 -2.21875 0.644531 -2.15625 0.4375 -2.15625 C 0.257812 -2.15625 0.0976562 -2.203125 -0.046875 -2.296875 Z M -0.046875 -2.296875 "/></g></g><g style="fill:#000000;fill-opacity:1;"><g transform="translate(95.803002, 131.96348)"><path style="stroke:none" d="M 0.328125 -2.28125 C 0.234375 -2.289062 0.15625 -2.320312 0.09375 -2.375 C 0.03125 -2.4375 0 -2.507812 0 -2.59375 C 0.0078125 -3.226562 0.0390625 -3.859375 0.09375 -4.484375 C 0.15625 -5.109375 0.191406 -5.726562 0.203125 -6.34375 C 0.203125 -6.4375 0.234375 -6.515625 0.296875 -6.578125 C 0.367188 -6.640625 0.445312 -6.671875 0.53125 -6.671875 C 0.613281 -6.671875 0.6875 -6.640625 0.75 -6.578125 C 0.820312 -6.515625 0.859375 -6.4375 0.859375 -6.34375 C 0.859375 -6.101562 0.851562 -5.859375 0.84375 -5.609375 C 0.832031 -5.367188 0.816406 -5.128906 0.796875 -4.890625 C 0.953125 -5.148438 1.15625 -5.421875 1.40625 -5.703125 C 1.65625 -5.992188 1.925781 -6.234375 2.21875 -6.421875 C 2.519531 -6.617188 2.820312 -6.71875 3.125 -6.71875 C 3.15625 -6.71875 3.191406 -6.710938 3.234375 -6.703125 C 3.273438 -6.703125 3.320312 -6.695312 3.375 -6.6875 C 3.457031 -6.664062 3.523438 -6.617188 3.578125 -6.546875 C 3.628906 -6.472656 3.644531 -6.390625 3.625 -6.296875 C 3.601562 -6.210938 3.554688 -6.144531 3.484375 -6.09375 C 3.410156 -6.050781 3.332031 -6.039062 3.25 -6.0625 C 3.039062 -6.101562 2.789062 -6.023438 2.5 -5.828125 C 2.21875 -5.640625 1.9375 -5.367188 1.65625 -5.015625 C 1.382812 -4.671875 1.148438 -4.285156 0.953125 -3.859375 C 0.765625 -3.441406 0.660156 -3.015625 0.640625 -2.578125 C 0.640625 -2.492188 0.609375 -2.421875 0.546875 -2.359375 C 0.484375 -2.304688 0.410156 -2.28125 0.328125 -2.28125 Z M 0.328125 -2.28125 "/></g></g><g style="fill:#000000;fill-opacity:1;"><g transform="translate(99.53413, 131.96348)"><path style="stroke:none" d="M 1.703125 -2.15625 C 1.035156 -2.15625 0.566406 -2.3125 0.296875 -2.625 C 0.0234375 -2.945312 -0.109375 -3.320312 -0.109375 -3.75 C -0.109375 -4.144531 -0.015625 -4.550781 0.171875 -4.96875 C 0.359375 -5.394531 0.609375 -5.757812 0.921875 -6.0625 C 1.128906 -6.25 1.328125 -6.382812 1.515625 -6.46875 C 1.703125 -6.550781 1.875 -6.59375 2.03125 -6.59375 C 2.289062 -6.59375 2.5 -6.507812 2.65625 -6.34375 C 2.820312 -6.1875 2.90625 -5.988281 2.90625 -5.75 C 2.90625 -5.46875 2.785156 -5.203125 2.546875 -4.953125 C 2.304688 -4.703125 2.003906 -4.492188 1.640625 -4.328125 C 1.273438 -4.160156 0.910156 -4.054688 0.546875 -4.015625 C 0.535156 -3.960938 0.523438 -3.914062 0.515625 -3.875 C 0.515625 -3.832031 0.515625 -3.789062 0.515625 -3.75 C 0.515625 -3.40625 0.625 -3.160156 0.84375 -3.015625 C 1.0625 -2.867188 1.320312 -2.796875 1.625 -2.796875 C 1.84375 -2.796875 2.054688 -2.820312 2.265625 -2.875 C 2.484375 -2.9375 2.6875 -3.019531 2.875 -3.125 C 3.195312 -3.300781 3.507812 -3.550781 3.8125 -3.875 C 4.125 -4.195312 4.421875 -4.597656 4.703125 -5.078125 C 4.765625 -5.171875 4.851562 -5.21875 4.96875 -5.21875 C 5.039062 -5.21875 5.097656 -5.203125 5.140625 -5.171875 C 5.242188 -5.128906 5.296875 -5.035156 5.296875 -4.890625 C 5.296875 -4.835938 5.28125 -4.785156 5.25 -4.734375 C 4.644531 -3.742188 4.03125 -3.066406 3.40625 -2.703125 C 2.789062 -2.335938 2.222656 -2.15625 1.703125 -2.15625 Z M 0.78125 -4.71875 C 1.039062 -4.757812 1.285156 -4.84375 1.515625 -4.96875 C 1.753906 -5.101562 1.941406 -5.25 2.078125 -5.40625 C 2.222656 -5.570312 2.28125 -5.710938 2.25 -5.828125 C 2.238281 -5.910156 2.171875 -5.953125 2.046875 -5.953125 C 1.898438 -5.953125 1.703125 -5.859375 1.453125 -5.671875 C 1.210938 -5.484375 0.988281 -5.164062 0.78125 -4.71875 Z M 0.78125 -4.71875 "/></g></g><g style="fill:#000000;fill-opacity:1;"><g transform="translate(104.024402, 131.96348)"><path style="stroke:none" d="M 0.890625 0.984375 C 0.765625 1.015625 0.664062 0.992188 0.59375 0.921875 C 0.519531 0.847656 0.484375 0.753906 0.484375 0.640625 C 0.484375 0.585938 0.5 0.53125 0.53125 0.46875 C 0.5625 0.414062 0.617188 0.378906 0.703125 0.359375 C 1.003906 0.265625 1.242188 0.0976562 1.421875 -0.140625 C 1.597656 -0.390625 1.6875 -0.65625 1.6875 -0.9375 C 1.6875 -1.1875 1.617188 -1.421875 1.484375 -1.640625 C 1.441406 -1.691406 1.421875 -1.753906 1.421875 -1.828125 C 1.421875 -1.910156 1.453125 -1.984375 1.515625 -2.046875 C 1.585938 -2.117188 1.671875 -2.15625 1.765625 -2.15625 C 1.867188 -2.15625 1.953125 -2.097656 2.015625 -1.984375 C 2.222656 -1.648438 2.328125 -1.300781 2.328125 -0.9375 C 2.328125 -0.507812 2.195312 -0.113281 1.9375 0.25 C 1.6875 0.613281 1.335938 0.859375 0.890625 0.984375 Z M 0.890625 0.984375 "/></g></g><g style="fill:#000000;fill-opacity:1;"><g transform="translate(106.834856, 131.96348)"><path style="stroke:none" d=""/></g></g><g style="fill:#000000;fill-opacity:1;"><g transform="translate(110.065272, 131.96348)"><path style="stroke:none" d="M -2.890625 5.921875 C -3.128906 5.804688 -3.289062 5.640625 -3.375 5.421875 C -3.457031 5.210938 -3.5 4.976562 -3.5 4.71875 C -3.5 4.53125 -3.484375 4.347656 -3.453125 4.171875 C -3.429688 3.992188 -3.398438 3.816406 -3.359375 3.640625 C -3.097656 2.585938 -2.632812 1.59375 -1.96875 0.65625 C -1.3125 -0.269531 -0.59375 -1.140625 0.1875 -1.953125 C 0.195312 -2.035156 0.203125 -2.125 0.203125 -2.21875 C 0.203125 -2.320312 0.203125 -2.421875 0.203125 -2.515625 L 0.203125 -3.109375 C 0.203125 -3.609375 0.195312 -4.117188 0.1875 -4.640625 C 0.175781 -5.160156 0.160156 -5.695312 0.140625 -6.25 C 0.140625 -6.332031 0.171875 -6.410156 0.234375 -6.484375 C 0.304688 -6.554688 0.382812 -6.59375 0.46875 -6.59375 C 0.550781 -6.59375 0.625 -6.554688 0.6875 -6.484375 C 0.757812 -6.421875 0.796875 -6.347656 0.796875 -6.265625 C 0.816406 -5.628906 0.832031 -5.003906 0.84375 -4.390625 C 0.863281 -3.785156 0.867188 -3.195312 0.859375 -2.625 C 1.304688 -3.070312 1.738281 -3.5 2.15625 -3.90625 C 2.582031 -4.320312 2.976562 -4.726562 3.34375 -5.125 C 3.40625 -5.1875 3.484375 -5.21875 3.578125 -5.21875 C 3.640625 -5.21875 3.710938 -5.191406 3.796875 -5.140625 C 3.859375 -5.078125 3.890625 -4.992188 3.890625 -4.890625 C 3.890625 -4.835938 3.863281 -4.769531 3.8125 -4.6875 C 3.375 -4.195312 2.894531 -3.707031 2.375 -3.21875 C 1.851562 -2.726562 1.335938 -2.21875 0.828125 -1.6875 C 0.796875 -0.6875 0.6875 0.269531 0.5 1.1875 C 0.3125 2.101562 0.078125 2.925781 -0.203125 3.65625 C -0.492188 4.394531 -0.820312 4.976562 -1.1875 5.40625 C -1.5625 5.84375 -1.953125 6.0625 -2.359375 6.0625 C -2.546875 6.0625 -2.722656 6.015625 -2.890625 5.921875 Z M -2.59375 5.34375 C -2.53125 5.375 -2.457031 5.390625 -2.375 5.390625 C -2.125 5.390625 -1.867188 5.222656 -1.609375 4.890625 C -1.347656 4.566406 -1.09375 4.113281 -0.84375 3.53125 C -0.601562 2.945312 -0.394531 2.269531 -0.21875 1.5 C -0.0390625 0.738281 0.078125 -0.078125 0.140625 -0.953125 C -0.515625 -0.234375 -1.101562 0.515625 -1.625 1.296875 C -2.144531 2.085938 -2.515625 2.921875 -2.734375 3.796875 C -2.828125 4.191406 -2.875 4.503906 -2.875 4.734375 C -2.875 4.953125 -2.84375 5.097656 -2.78125 5.171875 C -2.726562 5.253906 -2.664062 5.3125 -2.59375 5.34375 Z M 0.359375 -7.40625 C 0.265625 -7.40625 0.1875 -7.4375 0.125 -7.5 C 0.0703125 -7.5625 0.0390625 -7.632812 0.03125 -7.71875 L 0.03125 -8.234375 C 0.0195312 -8.359375 0.046875 -8.445312 0.109375 -8.5 C 0.179688 -8.550781 0.265625 -8.578125 0.359375 -8.578125 C 0.441406 -8.578125 0.515625 -8.550781 0.578125 -8.5 C 0.640625 -8.445312 0.671875 -8.363281 0.671875 -8.25 L 0.671875 -7.703125 C 0.671875 -7.617188 0.640625 -7.546875 0.578125 -7.484375 C 0.515625 -7.429688 0.441406 -7.40625 0.359375 -7.40625 Z M 0.359375 -7.40625 "/></g></g><g style="fill:#000000;fill-opacity:1;"><g transform="translate(113.18262, 131.96348)"><path style="stroke:none" d="M 1.078125 -1.984375 C 0.691406 -1.984375 0.425781 -2.15625 0.28125 -2.5 C 0.144531 -2.84375 0.078125 -3.253906 0.078125 -3.734375 C 0.078125 -4.097656 0.101562 -4.46875 0.15625 -4.84375 C 0.21875 -5.21875 0.273438 -5.550781 0.328125 -5.84375 C 0.367188 -6.050781 0.492188 -6.140625 0.703125 -6.109375 C 0.910156 -6.066406 1 -5.9375 0.96875 -5.71875 C 0.914062 -5.476562 0.863281 -5.160156 0.8125 -4.765625 C 0.757812 -4.378906 0.734375 -4 0.734375 -3.625 C 0.753906 -2.957031 0.878906 -2.625 1.109375 -2.625 C 1.285156 -2.625 1.484375 -2.773438 1.703125 -3.078125 C 1.929688 -3.378906 2.160156 -3.789062 2.390625 -4.3125 C 2.617188 -4.84375 2.804688 -5.429688 2.953125 -6.078125 C 3.003906 -6.234375 3.113281 -6.3125 3.28125 -6.3125 C 3.363281 -6.3125 3.4375 -6.273438 3.5 -6.203125 C 3.570312 -6.140625 3.609375 -6.066406 3.609375 -5.984375 C 3.597656 -5.859375 3.578125 -5.648438 3.546875 -5.359375 C 3.523438 -5.066406 3.515625 -4.765625 3.515625 -4.453125 C 3.515625 -4.148438 3.535156 -3.878906 3.578125 -3.640625 C 3.617188 -3.398438 3.695312 -3.253906 3.8125 -3.203125 C 3.9375 -3.140625 4.148438 -3.222656 4.453125 -3.453125 C 4.753906 -3.691406 5.109375 -4.171875 5.515625 -4.890625 C 5.554688 -5.003906 5.644531 -5.0625 5.78125 -5.0625 C 5.84375 -5.0625 5.898438 -5.050781 5.953125 -5.03125 C 6.054688 -4.957031 6.109375 -4.859375 6.109375 -4.734375 C 6.109375 -4.671875 6.097656 -4.617188 6.078125 -4.578125 C 5.660156 -3.835938 5.265625 -3.304688 4.890625 -2.984375 C 4.515625 -2.671875 4.179688 -2.515625 3.890625 -2.515625 C 3.609375 -2.515625 3.378906 -2.640625 3.203125 -2.890625 C 3.035156 -3.140625 2.929688 -3.46875 2.890625 -3.875 C 2.785156 -3.613281 2.644531 -3.335938 2.46875 -3.046875 C 2.289062 -2.765625 2.085938 -2.515625 1.859375 -2.296875 C 1.628906 -2.085938 1.367188 -1.984375 1.078125 -1.984375 Z M 1.078125 -1.984375 "/></g></g><g style="fill:#000000;fill-opacity:1;"><g transform="translate(118.561259, 131.96348)"><path style="stroke:none" d="M -0.4375 -2.40625 C -0.382812 -2.5625 -0.28125 -2.710938 -0.125 -2.859375 C 0.03125 -3.003906 0.316406 -3.234375 0.734375 -3.546875 C 0.648438 -3.921875 0.546875 -4.242188 0.421875 -4.515625 C 0.304688 -4.796875 0.210938 -5.125 0.140625 -5.5 C 0.128906 -5.5625 0.117188 -5.617188 0.109375 -5.671875 C 0.109375 -5.722656 0.109375 -5.773438 0.109375 -5.828125 C 0.109375 -6.242188 0.21875 -6.5625 0.4375 -6.78125 C 0.65625 -7 0.914062 -7.109375 1.21875 -7.109375 C 1.445312 -7.109375 1.675781 -7.046875 1.90625 -6.921875 C 2.019531 -6.859375 2.078125 -6.765625 2.078125 -6.640625 C 2.078125 -6.585938 2.0625 -6.535156 2.03125 -6.484375 C 1.957031 -6.367188 1.863281 -6.3125 1.75 -6.3125 C 1.738281 -6.3125 1.71875 -6.3125 1.6875 -6.3125 C 1.65625 -6.320312 1.625 -6.332031 1.59375 -6.34375 C 1.457031 -6.425781 1.332031 -6.46875 1.21875 -6.46875 C 1.125 -6.46875 1.050781 -6.441406 1 -6.390625 C 0.945312 -6.347656 0.910156 -6.316406 0.890625 -6.296875 C 0.804688 -6.210938 0.765625 -6.070312 0.765625 -5.875 C 0.765625 -5.59375 0.832031 -5.269531 0.96875 -4.90625 C 1.101562 -4.539062 1.207031 -4.226562 1.28125 -3.96875 C 1.644531 -4.226562 2.015625 -4.46875 2.390625 -4.6875 C 2.773438 -4.90625 3.191406 -5.085938 3.640625 -5.234375 C 3.648438 -5.242188 3.6875 -5.25 3.75 -5.25 C 3.882812 -5.25 3.976562 -5.179688 4.03125 -5.046875 C 4.050781 -5.035156 4.0625 -4.992188 4.0625 -4.921875 C 4.0625 -4.773438 3.984375 -4.675781 3.828125 -4.625 C 3.378906 -4.46875 2.957031 -4.273438 2.5625 -4.046875 C 2.164062 -3.816406 1.78125 -3.5625 1.40625 -3.28125 C 1.414062 -3.25 1.421875 -3.203125 1.421875 -3.140625 L 1.421875 -3 C 1.421875 -2.46875 1.296875 -2.085938 1.046875 -1.859375 C 0.796875 -1.628906 0.539062 -1.515625 0.28125 -1.515625 C 0.0703125 -1.515625 -0.101562 -1.570312 -0.25 -1.6875 C -0.40625 -1.800781 -0.484375 -1.960938 -0.484375 -2.171875 C -0.484375 -2.253906 -0.46875 -2.332031 -0.4375 -2.40625 Z M 0.15625 -2.1875 C 0.21875 -2.132812 0.320312 -2.140625 0.46875 -2.203125 C 0.613281 -2.273438 0.710938 -2.460938 0.765625 -2.765625 C 0.398438 -2.460938 0.195312 -2.269531 0.15625 -2.1875 Z M 0.15625 -2.1875 "/></g></g><g style="fill:#000000;fill-opacity:1;"><g transform="translate(121.920886, 131.96348)"><path style="stroke:none" d="M 0.640625 -2.0625 L 0.625 -2.0625 C 0.539062 -2.0625 0.46875 -2.09375 0.40625 -2.15625 C 0.34375 -2.21875 0.3125 -2.289062 0.3125 -2.375 C 0.289062 -2.820312 0.273438 -3.257812 0.265625 -3.6875 C 0.253906 -4.113281 0.25 -4.535156 0.25 -4.953125 C 0.25 -6.890625 0.359375 -8.742188 0.578125 -10.515625 L -2.265625 -10.4375 C -2.347656 -10.4375 -2.421875 -10.46875 -2.484375 -10.53125 C -2.546875 -10.59375 -2.578125 -10.671875 -2.578125 -10.765625 L -2.578125 -10.796875 C -2.578125 -10.984375 -2.476562 -11.078125 -2.28125 -11.078125 L 0.671875 -11.1875 C 0.796875 -11.945312 0.925781 -12.6875 1.0625 -13.40625 C 1.101562 -13.582031 1.210938 -13.671875 1.390625 -13.671875 C 1.492188 -13.671875 1.578125 -13.628906 1.640625 -13.546875 C 1.703125 -13.460938 1.722656 -13.375 1.703125 -13.28125 C 1.628906 -12.9375 1.5625 -12.585938 1.5 -12.234375 C 1.4375 -11.890625 1.378906 -11.539062 1.328125 -11.1875 L 5 -11.28125 C 5.09375 -11.28125 5.171875 -11.242188 5.234375 -11.171875 C 5.296875 -11.109375 5.328125 -11.035156 5.328125 -10.953125 C 5.328125 -10.867188 5.296875 -10.789062 5.234375 -10.71875 C 5.171875 -10.65625 5.097656 -10.625 5.015625 -10.625 L 1.25 -10.53125 C 1.125 -9.632812 1.03125 -8.726562 0.96875 -7.8125 C 0.914062 -6.894531 0.890625 -5.941406 0.890625 -4.953125 C 0.890625 -4.546875 0.894531 -4.128906 0.90625 -3.703125 C 0.914062 -3.273438 0.929688 -2.84375 0.953125 -2.40625 C 0.953125 -2.320312 0.921875 -2.242188 0.859375 -2.171875 C 0.804688 -2.097656 0.734375 -2.0625 0.640625 -2.0625 Z M 0.640625 -2.0625 "/></g></g><g style="fill:#000000;fill-opacity:1;"><g transform="translate(126.57277, 131.96348)"><path style="stroke:none" d=""/></g></g><g style="fill:#000000;fill-opacity:1;"><g transform="translate(129.803186, 131.96348)"><path style="stroke:none" d="M -0.046875 -2.296875 C -0.304688 -2.472656 -0.4375 -2.78125 -0.4375 -3.21875 C -0.4375 -3.539062 -0.359375 -3.894531 -0.203125 -4.28125 C -0.046875 -4.664062 0.175781 -5.03125 0.46875 -5.375 C 0.757812 -5.726562 1.101562 -6.015625 1.5 -6.234375 C 1.90625 -6.460938 2.363281 -6.578125 2.875 -6.578125 C 2.957031 -6.578125 3.03125 -6.539062 3.09375 -6.46875 C 3.164062 -6.40625 3.203125 -6.332031 3.203125 -6.25 C 3.203125 -6.164062 3.164062 -6.085938 3.09375 -6.015625 C 3.03125 -5.953125 2.957031 -5.921875 2.875 -5.921875 C 2.445312 -5.921875 2.066406 -5.820312 1.734375 -5.625 C 1.398438 -5.425781 1.117188 -5.175781 0.890625 -4.875 C 0.660156 -4.582031 0.484375 -4.285156 0.359375 -3.984375 C 0.242188 -3.679688 0.1875 -3.425781 0.1875 -3.21875 C 0.1875 -2.945312 0.273438 -2.8125 0.453125 -2.8125 C 0.554688 -2.8125 0.679688 -2.863281 0.828125 -2.96875 C 1.046875 -3.132812 1.257812 -3.363281 1.46875 -3.65625 C 1.675781 -3.945312 1.867188 -4.253906 2.046875 -4.578125 C 2.222656 -4.898438 2.375 -5.179688 2.5 -5.421875 C 2.59375 -5.554688 2.691406 -5.625 2.796875 -5.625 C 2.910156 -5.625 3 -5.578125 3.0625 -5.484375 C 3.132812 -5.390625 3.148438 -5.285156 3.109375 -5.171875 C 3.046875 -5.015625 2.992188 -4.851562 2.953125 -4.6875 C 2.921875 -4.519531 2.894531 -4.351562 2.875 -4.1875 C 2.84375 -4.019531 2.820312 -3.867188 2.8125 -3.734375 C 2.800781 -3.609375 2.796875 -3.492188 2.796875 -3.390625 C 2.796875 -3.171875 2.816406 -3.019531 2.859375 -2.9375 C 2.910156 -2.851562 2.976562 -2.8125 3.0625 -2.8125 C 3.226562 -2.8125 3.425781 -2.921875 3.65625 -3.140625 C 3.894531 -3.367188 4.132812 -3.65625 4.375 -4 C 4.625 -4.351562 4.835938 -4.703125 5.015625 -5.046875 C 5.078125 -5.148438 5.171875 -5.203125 5.296875 -5.203125 C 5.347656 -5.203125 5.394531 -5.191406 5.4375 -5.171875 C 5.5625 -5.109375 5.625 -5.007812 5.625 -4.875 C 5.625 -4.863281 5.617188 -4.84375 5.609375 -4.8125 C 5.609375 -4.789062 5.601562 -4.765625 5.59375 -4.734375 C 5.070312 -3.785156 4.582031 -3.117188 4.125 -2.734375 C 3.675781 -2.347656 3.289062 -2.15625 2.96875 -2.15625 C 2.6875 -2.15625 2.460938 -2.273438 2.296875 -2.515625 C 2.140625 -2.753906 2.070312 -3.0625 2.09375 -3.4375 C 1.976562 -3.25 1.828125 -3.050781 1.640625 -2.84375 C 1.453125 -2.644531 1.253906 -2.476562 1.046875 -2.34375 C 0.847656 -2.21875 0.644531 -2.15625 0.4375 -2.15625 C 0.257812 -2.15625 0.0976562 -2.203125 -0.046875 -2.296875 Z M -0.046875 -2.296875 "/></g></g><g style="fill:#000000;fill-opacity:1;"><g transform="translate(134.632651, 131.96348)"><path style="stroke:none" d=""/></g></g><g style="fill:#000000;fill-opacity:1;"><g transform="translate(137.863067, 131.96348)"><path style="stroke:none" d="M 1.703125 -2.171875 C 1.035156 -2.171875 0.566406 -2.320312 0.296875 -2.625 C 0.0234375 -2.925781 -0.109375 -3.296875 -0.109375 -3.734375 C -0.109375 -4.054688 -0.0507812 -4.382812 0.0625 -4.71875 C 0.1875 -5.0625 0.347656 -5.375 0.546875 -5.65625 C 0.753906 -5.9375 0.984375 -6.164062 1.234375 -6.34375 C 1.492188 -6.519531 1.757812 -6.609375 2.03125 -6.609375 C 2.269531 -6.609375 2.476562 -6.523438 2.65625 -6.359375 C 2.832031 -6.203125 2.921875 -6.015625 2.921875 -5.796875 C 2.921875 -5.679688 2.898438 -5.585938 2.859375 -5.515625 C 2.785156 -5.367188 2.679688 -5.296875 2.546875 -5.296875 C 2.546875 -5.296875 2.503906 -5.304688 2.421875 -5.328125 C 2.296875 -5.410156 2.234375 -5.515625 2.234375 -5.640625 C 2.234375 -5.640625 2.242188 -5.679688 2.265625 -5.765625 L 2.265625 -5.8125 C 2.222656 -5.914062 2.144531 -5.96875 2.03125 -5.96875 C 1.90625 -5.96875 1.757812 -5.898438 1.59375 -5.765625 C 1.425781 -5.628906 1.257812 -5.453125 1.09375 -5.234375 C 0.925781 -5.015625 0.785156 -4.78125 0.671875 -4.53125 C 0.566406 -4.28125 0.515625 -4.03125 0.515625 -3.78125 C 0.515625 -3.664062 0.53125 -3.546875 0.5625 -3.421875 C 0.613281 -3.242188 0.738281 -3.09375 0.9375 -2.96875 C 1.132812 -2.84375 1.382812 -2.78125 1.6875 -2.78125 C 2.09375 -2.78125 2.566406 -2.945312 3.109375 -3.28125 C 3.648438 -3.625 4.179688 -4.222656 4.703125 -5.078125 C 4.765625 -5.171875 4.863281 -5.21875 5 -5.21875 C 5.050781 -5.21875 5.097656 -5.207031 5.140625 -5.1875 C 5.242188 -5.125 5.296875 -5.03125 5.296875 -4.90625 C 5.296875 -4.84375 5.28125 -4.785156 5.25 -4.734375 C 4.65625 -3.753906 4.046875 -3.082031 3.421875 -2.71875 C 2.796875 -2.351562 2.222656 -2.171875 1.703125 -2.171875 Z M 1.703125 -2.171875 "/></g></g><g style="fill:#000000;fill-opacity:1;"><g transform="translate(142.434099, 131.96348)"><path style="stroke:none" d="M 1.46875 -2.15625 C 0.976562 -2.15625 0.632812 -2.398438 0.4375 -2.890625 C 0.25 -3.390625 0.15625 -4.019531 0.15625 -4.78125 C 0.15625 -5.425781 0.207031 -6.128906 0.3125 -6.890625 C 0.414062 -7.660156 0.535156 -8.429688 0.671875 -9.203125 C 0.816406 -9.972656 0.953125 -10.679688 1.078125 -11.328125 C 1.097656 -11.410156 1.144531 -11.476562 1.21875 -11.53125 C 1.289062 -11.582031 1.367188 -11.597656 1.453125 -11.578125 C 1.660156 -11.535156 1.75 -11.410156 1.71875 -11.203125 C 1.40625 -9.648438 1.175781 -8.332031 1.03125 -7.25 C 0.882812 -6.175781 0.8125 -5.304688 0.8125 -4.640625 C 0.8125 -4.140625 0.84375 -3.769531 0.90625 -3.53125 C 0.96875 -3.289062 1.039062 -3.125 1.125 -3.03125 C 1.21875 -2.9375 1.296875 -2.867188 1.359375 -2.828125 C 1.378906 -2.816406 1.398438 -2.804688 1.421875 -2.796875 C 1.441406 -2.796875 1.460938 -2.796875 1.484375 -2.796875 C 1.648438 -2.796875 1.847656 -2.90625 2.078125 -3.125 C 2.316406 -3.351562 2.5625 -3.640625 2.8125 -3.984375 C 3.0625 -4.328125 3.28125 -4.679688 3.46875 -5.046875 C 3.539062 -5.160156 3.640625 -5.21875 3.765625 -5.21875 C 3.785156 -5.21875 3.804688 -5.210938 3.828125 -5.203125 C 3.847656 -5.203125 3.875 -5.195312 3.90625 -5.1875 C 4.019531 -5.125 4.078125 -5.023438 4.078125 -4.890625 C 4.078125 -4.828125 4.0625 -4.773438 4.03125 -4.734375 C 3.914062 -4.515625 3.765625 -4.257812 3.578125 -3.96875 C 3.390625 -3.675781 3.175781 -3.390625 2.9375 -3.109375 C 2.707031 -2.835938 2.46875 -2.609375 2.21875 -2.421875 C 1.96875 -2.242188 1.71875 -2.15625 1.46875 -2.15625 Z M 1.46875 -2.15625 "/></g></g><g style="fill:#000000;fill-opacity:1;"><g transform="translate(145.72912, 131.96348)"><path style="stroke:none" d="M 0.40625 -2.265625 C 0.226562 -2.367188 0.101562 -2.515625 0.03125 -2.703125 C -0.03125 -2.890625 -0.0625 -3.109375 -0.0625 -3.359375 C -0.0625 -3.785156 0.0078125 -4.265625 0.15625 -4.796875 C 0.300781 -5.328125 0.4375 -5.828125 0.5625 -6.296875 C 0.582031 -6.390625 0.632812 -6.457031 0.71875 -6.5 C 0.800781 -6.550781 0.882812 -6.566406 0.96875 -6.546875 C 1.050781 -6.523438 1.113281 -6.472656 1.15625 -6.390625 C 1.207031 -6.304688 1.222656 -6.222656 1.203125 -6.140625 C 1.160156 -6.035156 1.101562 -5.867188 1.03125 -5.640625 C 0.96875 -5.410156 0.898438 -5.15625 0.828125 -4.875 C 0.765625 -4.59375 0.703125 -4.316406 0.640625 -4.046875 C 0.585938 -3.773438 0.5625 -3.535156 0.5625 -3.328125 C 0.5625 -3.054688 0.617188 -2.890625 0.734375 -2.828125 C 0.753906 -2.816406 0.773438 -2.804688 0.796875 -2.796875 C 0.816406 -2.796875 0.835938 -2.796875 0.859375 -2.796875 C 1.015625 -2.796875 1.207031 -2.898438 1.4375 -3.109375 C 1.664062 -3.316406 1.898438 -3.59375 2.140625 -3.9375 C 2.390625 -4.28125 2.625 -4.648438 2.84375 -5.046875 C 2.914062 -5.148438 3.019531 -5.203125 3.15625 -5.203125 C 3.175781 -5.203125 3.195312 -5.195312 3.21875 -5.1875 C 3.238281 -5.1875 3.265625 -5.179688 3.296875 -5.171875 C 3.398438 -5.097656 3.453125 -5 3.453125 -4.875 C 3.453125 -4.863281 3.445312 -4.84375 3.4375 -4.8125 C 3.4375 -4.789062 3.429688 -4.765625 3.421875 -4.734375 C 3.296875 -4.492188 3.140625 -4.222656 2.953125 -3.921875 C 2.765625 -3.628906 2.550781 -3.347656 2.3125 -3.078125 C 2.082031 -2.804688 1.84375 -2.578125 1.59375 -2.390625 C 1.34375 -2.210938 1.09375 -2.125 0.84375 -2.125 C 0.695312 -2.125 0.550781 -2.171875 0.40625 -2.265625 Z M 1.3125 -7.453125 C 1.1875 -7.453125 1.097656 -7.492188 1.046875 -7.578125 C 0.992188 -7.660156 0.976562 -7.753906 1 -7.859375 L 1.125 -8.328125 C 1.175781 -8.484375 1.28125 -8.5625 1.4375 -8.5625 C 1.53125 -8.5625 1.613281 -8.523438 1.6875 -8.453125 C 1.769531 -8.378906 1.796875 -8.28125 1.765625 -8.15625 L 1.609375 -7.671875 C 1.554688 -7.523438 1.457031 -7.453125 1.3125 -7.453125 Z M 1.3125 -7.453125 "/></g></g><g style="fill:#000000;fill-opacity:1;"><g transform="translate(148.410363, 131.96348)"><path style="stroke:none" d="M 1.703125 -2.171875 C 1.035156 -2.171875 0.566406 -2.320312 0.296875 -2.625 C 0.0234375 -2.925781 -0.109375 -3.296875 -0.109375 -3.734375 C -0.109375 -4.054688 -0.0507812 -4.382812 0.0625 -4.71875 C 0.1875 -5.0625 0.347656 -5.375 0.546875 -5.65625 C 0.753906 -5.9375 0.984375 -6.164062 1.234375 -6.34375 C 1.492188 -6.519531 1.757812 -6.609375 2.03125 -6.609375 C 2.269531 -6.609375 2.476562 -6.523438 2.65625 -6.359375 C 2.832031 -6.203125 2.921875 -6.015625 2.921875 -5.796875 C 2.921875 -5.679688 2.898438 -5.585938 2.859375 -5.515625 C 2.785156 -5.367188 2.679688 -5.296875 2.546875 -5.296875 C 2.546875 -5.296875 2.503906 -5.304688 2.421875 -5.328125 C 2.296875 -5.410156 2.234375 -5.515625 2.234375 -5.640625 C 2.234375 -5.640625 2.242188 -5.679688 2.265625 -5.765625 L 2.265625 -5.8125 C 2.222656 -5.914062 2.144531 -5.96875 2.03125 -5.96875 C 1.90625 -5.96875 1.757812 -5.898438 1.59375 -5.765625 C 1.425781 -5.628906 1.257812 -5.453125 1.09375 -5.234375 C 0.925781 -5.015625 0.785156 -4.78125 0.671875 -4.53125 C 0.566406 -4.28125 0.515625 -4.03125 0.515625 -3.78125 C 0.515625 -3.664062 0.53125 -3.546875 0.5625 -3.421875 C 0.613281 -3.242188 0.738281 -3.09375 0.9375 -2.96875 C 1.132812 -2.84375 1.382812 -2.78125 1.6875 -2.78125 C 2.09375 -2.78125 2.566406 -2.945312 3.109375 -3.28125 C 3.648438 -3.625 4.179688 -4.222656 4.703125 -5.078125 C 4.765625 -5.171875 4.863281 -5.21875 5 -5.21875 C 5.050781 -5.21875 5.097656 -5.207031 5.140625 -5.1875 C 5.242188 -5.125 5.296875 -5.03125 5.296875 -4.90625 C 5.296875 -4.84375 5.28125 -4.785156 5.25 -4.734375 C 4.65625 -3.753906 4.046875 -3.082031 3.421875 -2.71875 C 2.796875 -2.351562 2.222656 -2.171875 1.703125 -2.171875 Z M 1.703125 -2.171875 "/></g></g><g style="fill:#000000;fill-opacity:1;"><g transform="translate(152.868327, 131.96348)"><path style="stroke:none" d="M 0.328125 4.375 L 0.3125 4.375 C 0.21875 4.375 0.140625 4.34375 0.078125 4.28125 C 0.0234375 4.21875 -0.00390625 4.144531 -0.015625 4.0625 L -0.015625 2.546875 C -0.015625 1.734375 -0.0078125 0.914062 0 0.09375 C 0.0078125 -0.71875 0.0234375 -1.539062 0.046875 -2.375 C -0.191406 -2.507812 -0.3125 -2.722656 -0.3125 -3.015625 C -0.3125 -3.304688 -0.179688 -3.570312 0.078125 -3.8125 C 0.128906 -5.082031 0.1875 -6.363281 0.25 -7.65625 C 0.320312 -8.945312 0.40625 -10.265625 0.5 -11.609375 C 0.507812 -11.703125 0.550781 -11.773438 0.625 -11.828125 C 0.695312 -11.890625 0.773438 -11.914062 0.859375 -11.90625 C 0.941406 -11.90625 1.007812 -11.867188 1.0625 -11.796875 C 1.125 -11.734375 1.148438 -11.65625 1.140625 -11.5625 C 1.054688 -10.40625 0.984375 -9.265625 0.921875 -8.140625 C 0.867188 -7.023438 0.820312 -5.910156 0.78125 -4.796875 C 0.90625 -4.972656 1.066406 -5.175781 1.265625 -5.40625 C 1.472656 -5.644531 1.695312 -5.878906 1.9375 -6.109375 C 2.1875 -6.335938 2.4375 -6.523438 2.6875 -6.671875 C 2.9375 -6.828125 3.175781 -6.90625 3.40625 -6.90625 C 3.539062 -6.90625 3.660156 -6.867188 3.765625 -6.796875 C 3.992188 -6.660156 4.109375 -6.445312 4.109375 -6.15625 C 4.109375 -5.84375 4.007812 -5.503906 3.8125 -5.140625 C 3.625 -4.773438 3.410156 -4.429688 3.171875 -4.109375 C 2.941406 -3.796875 2.75 -3.546875 2.59375 -3.359375 C 2.875 -3.117188 3.128906 -2.945312 3.359375 -2.84375 C 3.597656 -2.75 3.8125 -2.703125 4 -2.703125 C 4.332031 -2.703125 4.625 -2.804688 4.875 -3.015625 C 5.125 -3.234375 5.34375 -3.5 5.53125 -3.8125 C 5.726562 -4.125 5.90625 -4.429688 6.0625 -4.734375 C 6.21875 -5.035156 6.375 -5.265625 6.53125 -5.421875 C 6.601562 -5.503906 6.679688 -5.546875 6.765625 -5.546875 C 6.835938 -5.546875 6.910156 -5.507812 6.984375 -5.4375 C 7.054688 -5.363281 7.09375 -5.285156 7.09375 -5.203125 C 7.09375 -5.148438 7.066406 -5.082031 7.015625 -5 C 6.921875 -4.894531 6.8125 -4.726562 6.6875 -4.5 C 6.570312 -4.28125 6.429688 -4.03125 6.265625 -3.75 C 6.097656 -3.46875 5.90625 -3.191406 5.6875 -2.921875 C 5.46875 -2.660156 5.222656 -2.445312 4.953125 -2.28125 C 4.679688 -2.113281 4.367188 -2.03125 4.015625 -2.03125 C 3.742188 -2.03125 3.453125 -2.097656 3.140625 -2.234375 C 2.835938 -2.367188 2.5 -2.59375 2.125 -2.90625 C 1.925781 -2.738281 1.703125 -2.585938 1.453125 -2.453125 C 1.203125 -2.316406 0.945312 -2.242188 0.6875 -2.234375 C 0.664062 -1.421875 0.648438 -0.617188 0.640625 0.171875 C 0.628906 0.972656 0.625 1.769531 0.625 2.5625 L 0.625 4.078125 C 0.625 4.273438 0.523438 4.375 0.328125 4.375 Z M 2.09375 -3.765625 C 2.289062 -3.972656 2.476562 -4.207031 2.65625 -4.46875 C 2.84375 -4.738281 3.003906 -5.003906 3.140625 -5.265625 C 3.273438 -5.523438 3.367188 -5.742188 3.421875 -5.921875 C 3.484375 -6.109375 3.484375 -6.21875 3.421875 -6.25 C 3.347656 -6.289062 3.171875 -6.21875 2.890625 -6.03125 C 2.617188 -5.84375 2.316406 -5.582031 1.984375 -5.25 C 1.660156 -4.925781 1.367188 -4.566406 1.109375 -4.171875 C 1.296875 -4.148438 1.46875 -4.097656 1.625 -4.015625 C 1.789062 -3.941406 1.945312 -3.859375 2.09375 -3.765625 Z M 0.703125 -3.171875 L 0.703125 -2.875 C 0.828125 -2.882812 0.960938 -2.921875 1.109375 -2.984375 C 1.253906 -3.046875 1.414062 -3.15625 1.59375 -3.3125 C 1.507812 -3.363281 1.410156 -3.410156 1.296875 -3.453125 C 1.191406 -3.492188 1.085938 -3.515625 0.984375 -3.515625 C 0.898438 -3.515625 0.816406 -3.5 0.734375 -3.46875 C 0.710938 -3.414062 0.703125 -3.363281 0.703125 -3.3125 C 0.703125 -3.269531 0.703125 -3.222656 0.703125 -3.171875 Z M 0.703125 -3.171875 "/></g></g><g style="fill:#000000;fill-opacity:1;"><g transform="translate(159.135321, 131.96348)"><path style="stroke:none" d=""/></g></g><g style="fill:#000000;fill-opacity:1;"><g transform="translate(162.365737, 131.96348)"><path style="stroke:none" d="M -0.046875 -2.296875 C -0.304688 -2.472656 -0.4375 -2.78125 -0.4375 -3.21875 C -0.4375 -3.539062 -0.359375 -3.894531 -0.203125 -4.28125 C -0.046875 -4.664062 0.175781 -5.03125 0.46875 -5.375 C 0.757812 -5.726562 1.101562 -6.015625 1.5 -6.234375 C 1.90625 -6.460938 2.363281 -6.578125 2.875 -6.578125 C 2.957031 -6.578125 3.03125 -6.539062 3.09375 -6.46875 C 3.164062 -6.40625 3.203125 -6.332031 3.203125 -6.25 C 3.203125 -6.164062 3.164062 -6.085938 3.09375 -6.015625 C 3.03125 -5.953125 2.957031 -5.921875 2.875 -5.921875 C 2.445312 -5.921875 2.066406 -5.820312 1.734375 -5.625 C 1.398438 -5.425781 1.117188 -5.175781 0.890625 -4.875 C 0.660156 -4.582031 0.484375 -4.285156 0.359375 -3.984375 C 0.242188 -3.679688 0.1875 -3.425781 0.1875 -3.21875 C 0.1875 -2.945312 0.273438 -2.8125 0.453125 -2.8125 C 0.554688 -2.8125 0.679688 -2.863281 0.828125 -2.96875 C 1.046875 -3.132812 1.257812 -3.363281 1.46875 -3.65625 C 1.675781 -3.945312 1.867188 -4.253906 2.046875 -4.578125 C 2.222656 -4.898438 2.375 -5.179688 2.5 -5.421875 C 2.59375 -5.554688 2.691406 -5.625 2.796875 -5.625 C 2.910156 -5.625 3 -5.578125 3.0625 -5.484375 C 3.132812 -5.390625 3.148438 -5.285156 3.109375 -5.171875 C 3.046875 -5.015625 2.992188 -4.851562 2.953125 -4.6875 C 2.921875 -4.519531 2.894531 -4.351562 2.875 -4.1875 C 2.84375 -4.019531 2.820312 -3.867188 2.8125 -3.734375 C 2.800781 -3.609375 2.796875 -3.492188 2.796875 -3.390625 C 2.796875 -3.171875 2.816406 -3.019531 2.859375 -2.9375 C 2.910156 -2.851562 2.976562 -2.8125 3.0625 -2.8125 C 3.226562 -2.8125 3.425781 -2.921875 3.65625 -3.140625 C 3.894531 -3.367188 4.132812 -3.65625 4.375 -4 C 4.625 -4.351562 4.835938 -4.703125 5.015625 -5.046875 C 5.078125 -5.148438 5.171875 -5.203125 5.296875 -5.203125 C 5.347656 -5.203125 5.394531 -5.191406 5.4375 -5.171875 C 5.5625 -5.109375 5.625 -5.007812 5.625 -4.875 C 5.625 -4.863281 5.617188 -4.84375 5.609375 -4.8125 C 5.609375 -4.789062 5.601562 -4.765625 5.59375 -4.734375 C 5.070312 -3.785156 4.582031 -3.117188 4.125 -2.734375 C 3.675781 -2.347656 3.289062 -2.15625 2.96875 -2.15625 C 2.6875 -2.15625 2.460938 -2.273438 2.296875 -2.515625 C 2.140625 -2.753906 2.070312 -3.0625 2.09375 -3.4375 C 1.976562 -3.25 1.828125 -3.050781 1.640625 -2.84375 C 1.453125 -2.644531 1.253906 -2.476562 1.046875 -2.34375 C 0.847656 -2.21875 0.644531 -2.15625 0.4375 -2.15625 C 0.257812 -2.15625 0.0976562 -2.203125 -0.046875 -2.296875 Z M -0.046875 -2.296875 "/></g></g><g style="fill:#000000;fill-opacity:1;"><g transform="translate(167.195202, 131.96348)"><path style="stroke:none" d="M 3.296875 -2.21875 C 2.890625 -2.21875 2.597656 -2.378906 2.421875 -2.703125 C 2.253906 -3.035156 2.132812 -3.40625 2.0625 -3.8125 C 2 -3.65625 1.910156 -3.460938 1.796875 -3.234375 C 1.679688 -3.003906 1.550781 -2.804688 1.40625 -2.640625 C 1.269531 -2.472656 1.109375 -2.390625 0.921875 -2.390625 C 0.628906 -2.390625 0.425781 -2.566406 0.3125 -2.921875 C 0.195312 -3.273438 0.140625 -3.679688 0.140625 -4.140625 C 0.140625 -4.546875 0.171875 -4.957031 0.234375 -5.375 C 0.304688 -5.789062 0.382812 -6.125 0.46875 -6.375 C 0.488281 -6.46875 0.539062 -6.53125 0.625 -6.5625 C 0.707031 -6.601562 0.789062 -6.613281 0.875 -6.59375 C 1.050781 -6.519531 1.117188 -6.378906 1.078125 -6.171875 C 0.992188 -5.921875 0.925781 -5.609375 0.875 -5.234375 C 0.820312 -4.859375 0.796875 -4.488281 0.796875 -4.125 C 0.796875 -3.914062 0.804688 -3.722656 0.828125 -3.546875 C 0.847656 -3.367188 0.882812 -3.222656 0.9375 -3.109375 C 1.070312 -3.253906 1.210938 -3.488281 1.359375 -3.8125 C 1.503906 -4.144531 1.640625 -4.476562 1.765625 -4.8125 C 1.890625 -5.15625 1.984375 -5.421875 2.046875 -5.609375 C 2.085938 -5.742188 2.191406 -5.8125 2.359375 -5.8125 C 2.453125 -5.8125 2.53125 -5.773438 2.59375 -5.703125 C 2.664062 -5.640625 2.695312 -5.566406 2.6875 -5.484375 C 2.6875 -5.390625 2.679688 -5.285156 2.671875 -5.171875 C 2.671875 -5.054688 2.671875 -4.925781 2.671875 -4.78125 C 2.671875 -4.507812 2.6875 -4.222656 2.71875 -3.921875 C 2.75 -3.617188 2.804688 -3.363281 2.890625 -3.15625 C 2.984375 -2.957031 3.125 -2.859375 3.3125 -2.859375 C 3.5 -2.859375 3.644531 -2.957031 3.75 -3.15625 C 3.863281 -3.363281 3.953125 -3.613281 4.015625 -3.90625 C 4.078125 -4.207031 4.117188 -4.5 4.140625 -4.78125 C 4.160156 -5.070312 4.171875 -5.296875 4.171875 -5.453125 L 4.171875 -5.671875 C 4.191406 -5.890625 4.273438 -6.019531 4.421875 -6.0625 C 4.429688 -6.070312 4.472656 -6.078125 4.546875 -6.078125 C 4.648438 -6.078125 4.75 -6.019531 4.84375 -5.90625 C 4.925781 -5.800781 5.019531 -5.671875 5.125 -5.515625 C 5.226562 -5.359375 5.351562 -5.21875 5.5 -5.09375 C 5.65625 -4.976562 5.835938 -4.921875 6.046875 -4.921875 C 6.273438 -4.921875 6.523438 -5.007812 6.796875 -5.1875 C 6.847656 -5.21875 6.910156 -5.234375 6.984375 -5.234375 C 7.097656 -5.234375 7.1875 -5.179688 7.25 -5.078125 C 7.28125 -5.035156 7.296875 -4.976562 7.296875 -4.90625 C 7.296875 -4.769531 7.242188 -4.679688 7.140625 -4.640625 C 6.773438 -4.398438 6.410156 -4.28125 6.046875 -4.28125 C 5.804688 -4.28125 5.582031 -4.332031 5.375 -4.4375 C 5.175781 -4.550781 4.984375 -4.703125 4.796875 -4.890625 C 4.785156 -4.617188 4.753906 -4.328125 4.703125 -4.015625 C 4.648438 -3.703125 4.566406 -3.410156 4.453125 -3.140625 C 4.335938 -2.867188 4.1875 -2.644531 4 -2.46875 C 3.8125 -2.300781 3.578125 -2.21875 3.296875 -2.21875 Z M 3.296875 -2.21875 "/></g></g><g style="fill:#000000;fill-opacity:1;"><g transform="translate(173.882149, 131.96348)"><path style="stroke:none" d="M -0.046875 -2.296875 C -0.304688 -2.472656 -0.4375 -2.78125 -0.4375 -3.21875 C -0.4375 -3.539062 -0.359375 -3.894531 -0.203125 -4.28125 C -0.046875 -4.664062 0.175781 -5.03125 0.46875 -5.375 C 0.757812 -5.726562 1.101562 -6.015625 1.5 -6.234375 C 1.90625 -6.460938 2.363281 -6.578125 2.875 -6.578125 C 2.957031 -6.578125 3.03125 -6.539062 3.09375 -6.46875 C 3.164062 -6.40625 3.203125 -6.332031 3.203125 -6.25 C 3.203125 -6.164062 3.164062 -6.085938 3.09375 -6.015625 C 3.03125 -5.953125 2.957031 -5.921875 2.875 -5.921875 C 2.445312 -5.921875 2.066406 -5.820312 1.734375 -5.625 C 1.398438 -5.425781 1.117188 -5.175781 0.890625 -4.875 C 0.660156 -4.582031 0.484375 -4.285156 0.359375 -3.984375 C 0.242188 -3.679688 0.1875 -3.425781 0.1875 -3.21875 C 0.1875 -2.945312 0.273438 -2.8125 0.453125 -2.8125 C 0.554688 -2.8125 0.679688 -2.863281 0.828125 -2.96875 C 1.046875 -3.132812 1.257812 -3.363281 1.46875 -3.65625 C 1.675781 -3.945312 1.867188 -4.253906 2.046875 -4.578125 C 2.222656 -4.898438 2.375 -5.179688 2.5 -5.421875 C 2.59375 -5.554688 2.691406 -5.625 2.796875 -5.625 C 2.910156 -5.625 3 -5.578125 3.0625 -5.484375 C 3.132812 -5.390625 3.148438 -5.285156 3.109375 -5.171875 C 3.046875 -5.015625 2.992188 -4.851562 2.953125 -4.6875 C 2.921875 -4.519531 2.894531 -4.351562 2.875 -4.1875 C 2.84375 -4.019531 2.820312 -3.867188 2.8125 -3.734375 C 2.800781 -3.609375 2.796875 -3.492188 2.796875 -3.390625 C 2.796875 -3.171875 2.816406 -3.019531 2.859375 -2.9375 C 2.910156 -2.851562 2.976562 -2.8125 3.0625 -2.8125 C 3.226562 -2.8125 3.425781 -2.921875 3.65625 -3.140625 C 3.894531 -3.367188 4.132812 -3.65625 4.375 -4 C 4.625 -4.351562 4.835938 -4.703125 5.015625 -5.046875 C 5.078125 -5.148438 5.171875 -5.203125 5.296875 -5.203125 C 5.347656 -5.203125 5.394531 -5.191406 5.4375 -5.171875 C 5.5625 -5.109375 5.625 -5.007812 5.625 -4.875 C 5.625 -4.863281 5.617188 -4.84375 5.609375 -4.8125 C 5.609375 -4.789062 5.601562 -4.765625 5.59375 -4.734375 C 5.070312 -3.785156 4.582031 -3.117188 4.125 -2.734375 C 3.675781 -2.347656 3.289062 -2.15625 2.96875 -2.15625 C 2.6875 -2.15625 2.460938 -2.273438 2.296875 -2.515625 C 2.140625 -2.753906 2.070312 -3.0625 2.09375 -3.4375 C 1.976562 -3.25 1.828125 -3.050781 1.640625 -2.84375 C 1.453125 -2.644531 1.253906 -2.476562 1.046875 -2.34375 C 0.847656 -2.21875 0.644531 -2.15625 0.4375 -2.15625 C 0.257812 -2.15625 0.0976562 -2.203125 -0.046875 -2.296875 Z M -0.046875 -2.296875 "/></g></g><g style="fill:#000000;fill-opacity:1;"><g transform="translate(178.711613, 131.96348)"><path style="stroke:none" d="M 2.625 3.328125 C 2.375 3.867188 2.09375 4.265625 1.78125 4.515625 C 1.46875 4.765625 1.179688 4.890625 0.921875 4.890625 C 0.691406 4.890625 0.5 4.796875 0.34375 4.609375 C 0.195312 4.429688 0.125 4.171875 0.125 3.828125 C 0.125 3.304688 0.335938 2.617188 0.765625 1.765625 C 1.203125 0.910156 1.960938 -0.0546875 3.046875 -1.140625 C 3.128906 -1.722656 3.1875 -2.300781 3.21875 -2.875 C 3.25 -3.457031 3.265625 -4.023438 3.265625 -4.578125 C 2.921875 -3.835938 2.53125 -3.289062 2.09375 -2.9375 C 1.65625 -2.582031 1.257812 -2.40625 0.90625 -2.40625 C 0.625 -2.40625 0.390625 -2.507812 0.203125 -2.71875 C 0.0234375 -2.9375 -0.0625 -3.265625 -0.0625 -3.703125 C -0.0625 -4.003906 -0.0078125 -4.351562 0.09375 -4.75 C 0.207031 -5.15625 0.382812 -5.613281 0.625 -6.125 C 0.675781 -6.238281 0.769531 -6.296875 0.90625 -6.296875 C 1.007812 -6.296875 1.085938 -6.257812 1.140625 -6.1875 C 1.203125 -6.125 1.234375 -6.050781 1.234375 -5.96875 C 1.234375 -5.894531 1.226562 -5.847656 1.21875 -5.828125 C 1.007812 -5.421875 0.847656 -5.023438 0.734375 -4.640625 C 0.628906 -4.265625 0.578125 -3.941406 0.578125 -3.671875 C 0.578125 -3.203125 0.738281 -3 1.0625 -3.0625 C 1.320312 -3.125 1.585938 -3.300781 1.859375 -3.59375 C 2.140625 -3.882812 2.398438 -4.269531 2.640625 -4.75 C 2.878906 -5.238281 3.070312 -5.769531 3.21875 -6.34375 C 3.269531 -6.53125 3.378906 -6.613281 3.546875 -6.59375 C 3.722656 -6.59375 3.820312 -6.492188 3.84375 -6.296875 C 3.863281 -6.066406 3.878906 -5.8125 3.890625 -5.53125 C 3.898438 -5.25 3.90625 -4.945312 3.90625 -4.625 C 3.90625 -4.195312 3.894531 -3.75 3.875 -3.28125 C 3.863281 -2.8125 3.832031 -2.335938 3.78125 -1.859375 C 4.300781 -2.367188 4.8125 -2.882812 5.3125 -3.40625 C 5.8125 -3.9375 6.253906 -4.503906 6.640625 -5.109375 C 6.691406 -5.191406 6.78125 -5.234375 6.90625 -5.234375 C 6.988281 -5.234375 7.050781 -5.21875 7.09375 -5.1875 C 7.1875 -5.125 7.234375 -5.03125 7.234375 -4.90625 C 7.234375 -4.851562 7.21875 -4.800781 7.1875 -4.75 C 6.707031 -4.007812 6.15625 -3.328125 5.53125 -2.703125 L 3.671875 -0.84375 C 3.578125 -0.1875 3.445312 0.519531 3.28125 1.28125 C 3.113281 2.039062 2.894531 2.722656 2.625 3.328125 Z M 0.84375 4.1875 C 0.863281 4.238281 0.945312 4.238281 1.09375 4.1875 C 1.238281 4.144531 1.414062 3.988281 1.625 3.71875 C 1.84375 3.457031 2.066406 3.03125 2.296875 2.4375 C 2.523438 1.84375 2.722656 1.023438 2.890625 -0.015625 C 2.429688 0.515625 2.066406 0.988281 1.796875 1.40625 C 1.535156 1.820312 1.335938 2.175781 1.203125 2.46875 C 1.046875 2.800781 0.9375 3.082031 0.875 3.3125 C 0.820312 3.550781 0.796875 3.742188 0.796875 3.890625 C 0.796875 4.023438 0.8125 4.125 0.84375 4.1875 Z M 0.84375 4.1875 "/></g></g><g style="fill:#000000;fill-opacity:1;"><g transform="translate(185.140127, 131.96348)"><path style="stroke:none" d="M 0.96875 -2.625 L 0.953125 -2.625 C 0.867188 -2.625 0.796875 -2.65625 0.734375 -2.71875 C 0.671875 -2.78125 0.640625 -2.851562 0.640625 -2.9375 L 0.8125 -11.34375 C 0.8125 -11.425781 0.84375 -11.5 0.90625 -11.5625 C 0.976562 -11.632812 1.054688 -11.671875 1.140625 -11.671875 C 1.347656 -11.671875 1.453125 -11.554688 1.453125 -11.328125 L 1.296875 -2.921875 C 1.296875 -2.835938 1.257812 -2.765625 1.1875 -2.703125 C 1.125 -2.648438 1.050781 -2.625 0.96875 -2.625 Z M 0.890625 0 C 0.617188 0 0.484375 -0.132812 0.484375 -0.40625 C 0.484375 -0.675781 0.617188 -0.8125 0.890625 -0.8125 C 1.160156 -0.8125 1.296875 -0.675781 1.296875 -0.40625 C 1.296875 -0.132812 1.160156 0 0.890625 0 Z M 0.890625 -0.390625 L 0.90625 -0.40625 L 0.890625 -0.421875 L 0.875 -0.40625 Z M 0.890625 -0.390625 "/></g></g></g></svg>