<svg xmlns="http://www.w3.org/2000/svg" xmlns:xlink="http://www.w3.org/1999/xlink" width="300" zoomAndPan="magnify" viewBox="0 0 224.87999 149.999998" height="200" preserveAspectRatio="xMidYMid meet" version="1.2"><defs><clipPath id="19c02b38d6"><path d="M 49.769531 6.445312 L 188.632812 6.445312 L 188.632812 145.304688 L 49.769531 145.304688 Z M 49.769531 6.445312 "/></clipPath><clipPath id="3f63a84876"><path d="M 119.203125 6.445312 C 80.855469 6.445312 49.769531 37.527344 49.769531 75.875 C 49.769531 114.21875 80.855469 145.304688 119.203125 145.304688 C 157.546875 145.304688 188.632812 114.21875 188.632812 75.875 C 188.632812 37.527344 157.546875 6.445312 119.203125 6.445312 Z M 119.203125 6.445312 "/></clipPath><clipPath id="24e0325a72"><path d="M 52.066406 36.28125 L 187.742188 36.28125 L 187.742188 139.726562 L 52.066406 139.726562 Z M 52.066406 36.28125 "/></clipPath><clipPath id="48063a3ae7"><path d="M 117 138 L 118 138 L 118 139.726562 L 117 139.726562 Z M 117 138 "/></clipPath></defs><g id="ff11d88d1f"><g clip-rule="nonzero" clip-path="url(#19c02b38d6)"><g clip-rule="nonzero" clip-path="url(#3f63a84876)"><path style=" stroke:none;fill-rule:nonzero;fill:#ffedca;fill-opacity:1;" d="M 49.769531 6.445312 L 188.632812 6.445312 L 188.632812 145.304688 L 49.769531 145.304688 Z M 49.769531 6.445312 "/></g></g><path style=" stroke:none;fill-rule:nonzero;fill:#ffffff;fill-opacity:1;" d="M 69.546875 75.238281 C 69.542969 75.503906 69.921875 75.882812 70.175781 75.867188 C 70.148438 75.59375 69.808594 75.257812 69.546875 75.238281 "/><path style=" stroke:none;fill-rule:nonzero;fill:#ffffff;fill-opacity:1;" d="M 68.910156 74.441406 C 68.945312 74.652344 69.160156 75.0625 69.375 75.0625 C 69.496094 74.792969 69.152344 74.449219 68.910156 74.441406 "/><path style=" stroke:none;fill-rule:nonzero;fill:#ffffff;fill-opacity:1;" d="M 68.726562 74.113281 C 68.695312 73.878906 68.472656 73.671875 68.328125 73.480469 C 68.015625 73.625 68.488281 74.171875 68.726562 74.113281 "/><g clip-rule="nonzero" clip-path="url(#24e0325a72)"><path style=" stroke:none;fill-rule:nonzero;fill:#00646e;fill-opacity:1;" d="M 123.816406 99.640625 C 123.375 100.382812 122.832031 101.238281 122.371094 101.929688 C 121.90625 102.566406 121.367188 103.199219 120.832031 103.839844 L 120.867188 96.890625 C 122.347656 97.488281 123.824219 98.488281 123.964844 98.871094 C 124.027344 98.886719 124.144531 99.007812 123.816406 99.640625 Z M 121.484375 116.609375 C 121.292969 116.972656 121.003906 117.238281 120.746094 117.554688 L 120.78125 111.917969 C 120.960938 112.109375 121.160156 112.339844 121.300781 112.585938 C 122.070312 113.835938 122.289062 115.417969 121.484375 116.609375 Z M 124.015625 125.699219 C 125.164062 127.101562 125.140625 128.648438 123.738281 130.015625 C 122.796875 131.164062 121.714844 132.304688 120.652344 133.332031 L 120.71875 122.53125 C 121.921875 123.53125 123.105469 124.519531 124.015625 125.699219 Z M 115.566406 130.160156 C 114.140625 128.769531 114.121094 127.222656 115.261719 125.804688 C 116.085938 124.71875 117.171875 123.808594 118.296875 122.832031 L 118.230469 132.992188 C 117.320312 132.085938 116.394531 131.128906 115.566406 130.160156 Z M 117.777344 116.515625 C 116.992188 115.347656 117.140625 113.785156 117.917969 112.515625 C 118.03125 112.324219 118.238281 112.097656 118.359375 111.976562 L 118.324219 117.230469 C 118.144531 116.992188 117.917969 116.773438 117.777344 116.515625 Z M 115.355469 99.734375 C 115.027344 99.113281 115.160156 99.042969 115.210938 98.957031 C 115.355469 98.585938 116.949219 97.496094 118.445312 96.949219 L 118.410156 103.957031 C 117.875 103.3125 117.28125 102.695312 116.84375 102.03125 C 116.335938 101.316406 115.816406 100.46875 115.355469 99.734375 Z M 187.40625 56.957031 C 187.582031 56.800781 187.683594 56.644531 187.683594 56.644531 C 168.714844 56.527344 141.800781 45.914062 141.800781 45.914062 C 141.800781 45.914062 134.886719 41.617188 129.550781 46.847656 C 125.609375 50.671875 122.675781 53.515625 121.109375 55.011719 L 121.152344 48.261719 C 123.921875 47.710938 126.082031 45.34375 126.101562 42.441406 C 126.117188 39.054688 123.382812 36.304688 120.003906 36.292969 C 116.640625 36.277344 113.871094 38.984375 113.851562 42.371094 C 113.828125 45.292969 115.964844 47.660156 118.730469 48.253906 L 118.6875 55.046875 C 117.171875 53.550781 114.242188 50.625 110.351562 46.734375 C 105.101562 41.445312 98.113281 45.664062 98.113281 45.664062 C 98.113281 45.664062 71.074219 55.953125 52.121094 55.84375 C 52.121094 55.84375 52.195312 56.003906 52.390625 56.164062 C 58.167969 56.59375 70.660156 56.871094 83.183594 53.277344 C 83.183594 53.277344 71.316406 58.902344 52.636719 56.464844 C 54.476562 58.332031 61.886719 63.921875 81.875 57.414062 C 85.960938 56.042969 85.960938 56.042969 83.277344 57.421875 C 83.277344 57.421875 75.183594 62.109375 61.644531 63.378906 C 61.644531 63.378906 62.027344 64.40625 63.53125 65.410156 C 67.183594 65.269531 78.675781 64.441406 89.796875 58.78125 C 89.796875 58.78125 79.933594 66.257812 63.664062 65.425781 C 66.921875 67.464844 75.019531 69.175781 94.921875 61.0625 C 94.921875 61.0625 97.421875 60.386719 95.679688 61.382812 C 93.90625 62.382812 81.289062 67.726562 71.386719 68.398438 C 71.386719 68.398438 72.5625 69.429688 75.113281 70.179688 C 80.421875 69.28125 90.949219 67.121094 100.707031 62.375 C 100.707031 62.375 91.816406 68.40625 75.5625 70.292969 C 80.296875 71.46875 89.332031 71.726562 104.390625 64.449219 C 104.390625 64.449219 106.265625 64.148438 104.824219 64.820312 C 103.4375 65.5625 93.796875 70.757812 85.476562 71.578125 C 84.835938 71.605469 87.621094 72.589844 92.011719 72.617188 C 95.714844 71.792969 102.253906 69.789062 108.316406 65.523438 C 108.316406 65.523438 103.171875 70.757812 93.492188 72.625 C 98.46875 72.453125 105.09375 71.042969 111.199219 66.230469 C 111.199219 66.230469 116.121094 69.550781 118.601562 70.664062 L 118.480469 90.425781 C 116.449219 89.496094 114.492188 88.644531 112.644531 87.664062 C 111.121094 86.898438 109.667969 85.925781 108.730469 85.058594 C 108.285156 84.601562 107.394531 82.632812 108.542969 81.585938 C 109.554688 81.179688 111.292969 81.40625 112.339844 81.804688 L 112.355469 81.691406 C 114.460938 82.085938 116.363281 81.109375 116.769531 78.753906 C 117.121094 76.332031 116.222656 74.714844 114.171875 74.335938 L 114.171875 74.25 C 111.726562 73.738281 109.527344 73.636719 106.671875 74.621094 C 105.289062 75.15625 103.835938 76.203125 102.910156 77.660156 C 101.933594 79.117188 101.597656 80.757812 101.503906 82.09375 C 101.460938 82.777344 101.492188 83.410156 101.539062 84.054688 C 101.578125 84.652344 101.847656 85.878906 102.160156 86.527344 C 102.851562 88.042969 103.84375 89.105469 104.753906 89.871094 C 106.699219 91.410156 108.527344 92.195312 110.351562 92.96875 C 111.492188 93.476562 112.632812 93.847656 113.777344 94.246094 C 112.945312 94.964844 111.882812 95.808594 111.285156 97.417969 C 110.644531 99.164062 111.355469 101.105469 112.082031 102.085938 C 112.71875 102.902344 113.246094 103.605469 113.898438 104.390625 C 114.984375 105.722656 116.222656 106.964844 117.398438 108.117188 C 116.683594 109.03125 116.015625 109.9375 115.445312 111.121094 C 114.460938 113.136719 114.304688 115.96875 115.851562 117.878906 C 116.550781 118.859375 117.367188 119.6875 118.195312 120.402344 C 118.125 120.472656 118.046875 120.523438 117.960938 120.609375 C 116.648438 121.933594 115.210938 123.203125 114.121094 124.976562 C 113.609375 125.804688 113.125 126.886719 113.308594 128.128906 C 113.429688 129.277344 114.269531 130.1875 114.839844 130.785156 C 115.921875 131.914062 117.0625 132.90625 118.230469 133.875 L 118.21875 136.398438 C 117.746094 136.984375 117.46875 137.625 117.347656 138.265625 C 117.546875 137.625 117.9375 137.039062 118.21875 136.4375 L 118.203125 139.09375 L 120.625 139.105469 L 120.640625 136.324219 C 121.242188 137.195312 121.59375 138.234375 121.324219 139.390625 C 121.535156 138.4375 121.492188 137.410156 121.09375 136.480469 C 120.980469 136.210938 120.816406 136.039062 120.640625 135.8125 L 120.652344 134.058594 C 121.90625 133.003906 123.238281 131.933594 124.421875 130.699219 C 125.019531 130.09375 125.859375 129.199219 126.007812 128.015625 C 126.152344 126.789062 125.695312 125.734375 125.164062 124.855469 C 124.042969 123.109375 122.605469 121.871094 121.257812 120.492188 C 121.257812 120.464844 121.1875 120.449219 121.160156 120.394531 C 121.941406 119.664062 122.707031 118.898438 123.417969 117.941406 C 124.933594 116.023438 124.800781 113.195312 123.773438 111.21875 C 123.1875 109.980469 122.511719 109.066406 121.765625 108.148438 C 122.96875 106.921875 124.222656 105.710938 125.296875 104.304688 C 125.972656 103.507812 126.492188 102.828125 127.097656 101.953125 C 127.863281 101.046875 128.546875 99.039062 127.902344 97.296875 C 127.320312 95.777344 126.386719 94.929688 125.566406 94.261719 C 126.644531 93.855469 127.742188 93.519531 128.824219 93.050781 C 130.652344 92.285156 132.507812 91.429688 134.414062 89.898438 C 135.335938 89.128906 136.300781 88.066406 136.992188 86.527344 C 137.3125 85.917969 137.597656 84.636719 137.605469 84.089844 C 137.671875 83.445312 137.671875 82.789062 137.65625 82.113281 C 137.578125 80.765625 137.207031 79.171875 136.257812 77.671875 C 135.320312 76.253906 133.808594 75.191406 132.441406 74.679688 C 129.5625 73.707031 127.421875 73.832031 124.925781 74.316406 L 124.957031 74.398438 C 122.875 74.757812 121.992188 76.445312 122.371094 78.792969 C 122.8125 81.214844 124.675781 82.140625 126.777344 81.777344 L 126.777344 81.828125 C 127.875 81.492188 129.570312 81.1875 130.605469 81.621094 C 131.765625 82.675781 130.875 84.652344 130.417969 85.101562 C 129.492188 86.042969 128.0625 86.902344 126.515625 87.703125 C 124.75 88.671875 122.847656 89.503906 120.902344 90.367188 L 121.015625 70.679688 C 123.558594 69.550781 128.46875 66.332031 128.46875 66.332031 C 134.523438 71.214844 141.097656 72.710938 146.097656 72.9375 C 136.488281 70.957031 131.359375 65.660156 131.359375 65.660156 C 137.363281 69.996094 143.882812 72.070312 147.578125 72.945312 C 151.96875 72.972656 154.765625 72.019531 154.097656 71.976562 C 145.8125 71.058594 136.246094 65.753906 134.828125 64.988281 C 133.425781 64.3125 135.300781 64.632812 135.300781 64.632812 C 150.269531 72.089844 159.324219 71.933594 164.054688 70.816406 C 147.8125 68.726562 139.050781 62.597656 139.050781 62.597656 C 148.71875 67.457031 159.210938 69.746094 164.511719 70.703125 C 167.074219 69.988281 168.246094 68.960938 168.246094 68.960938 C 158.355469 68.175781 145.8125 62.679688 144.089844 61.675781 C 142.308594 60.648438 144.824219 61.347656 144.824219 61.347656 C 164.5625 69.695312 172.738281 68.089844 176.007812 66.089844 C 159.757812 66.730469 149.972656 59.132812 149.972656 59.132812 C 161.015625 64.925781 172.488281 65.882812 176.144531 66.066406 C 177.648438 65.089844 178.074219 64.058594 178.074219 64.058594 C 164.554688 62.625 156.488281 57.847656 156.488281 57.847656 C 153.835938 56.441406 153.835938 56.441406 157.871094 57.855469 C 177.8125 64.605469 185.277344 59.097656 187.148438 57.25 C 168.4375 59.472656 156.632812 53.710938 156.632812 53.710938 C 169.113281 57.441406 181.628906 57.320312 187.40625 56.957031 "/></g><g clip-rule="nonzero" clip-path="url(#48063a3ae7)"><path style=" stroke:none;fill-rule:nonzero;fill:#00646e;fill-opacity:1;" d="M 117.304688 139.207031 C 117.253906 138.851562 117.339844 138.550781 117.347656 138.265625 C 117.28125 138.550781 117.234375 138.90625 117.304688 139.207031 "/></g></g></svg>