<svg xmlns="http://www.w3.org/2000/svg" xmlns:xlink="http://www.w3.org/1999/xlink" width="500" zoomAndPan="magnify" viewBox="0 0 375 374.999991" height="500" preserveAspectRatio="xMidYMid meet" version="1.2"><defs><clipPath id="f9b3c89c44"><path d="M 4.492188 6.589844 L 369.007812 6.589844 L 369.007812 371.101562 L 4.492188 371.101562 Z M 4.492188 6.589844 "/></clipPath><clipPath id="c35614f253"><path d="M 186.75 6.589844 C 86.09375 6.589844 4.492188 88.1875 4.492188 188.84375 C 4.492188 289.503906 86.09375 371.101562 186.75 371.101562 C 287.40625 371.101562 369.007812 289.503906 369.007812 188.84375 C 369.007812 88.1875 287.40625 6.589844 186.75 6.589844 Z M 186.75 6.589844 "/></clipPath><clipPath id="4d2bb45e3c"><path d="M 4.492188 6.589844 L 368.992188 6.589844 L 368.992188 371.089844 L 4.492188 371.089844 Z M 4.492188 6.589844 "/></clipPath><clipPath id="559b26dc6c"><path d="M 186.742188 6.589844 C 86.089844 6.589844 4.492188 88.183594 4.492188 188.839844 C 4.492188 289.492188 86.089844 371.089844 186.742188 371.089844 C 287.398438 371.089844 368.992188 289.492188 368.992188 188.839844 C 368.992188 88.183594 287.398438 6.589844 186.742188 6.589844 Z M 186.742188 6.589844 "/></clipPath><clipPath id="3243514db2"><path d="M 21.449219 57 L 310 57 L 310 344.859375 L 21.449219 344.859375 Z M 21.449219 57 "/></clipPath><clipPath id="55e4dc7305"><path d="M 44 26.109375 L 343.949219 26.109375 L 343.949219 326 L 44 326 Z M 44 26.109375 "/></clipPath></defs><g id="9c3edbb875"><g clip-rule="nonzero" clip-path="url(#f9b3c89c44)"><g clip-rule="nonzero" clip-path="url(#c35614f253)"><path style=" stroke:none;fill-rule:nonzero;fill:#00646e;fill-opacity:1;" d="M 4.492188 6.589844 L 369.007812 6.589844 L 369.007812 371.101562 L 4.492188 371.101562 Z M 4.492188 6.589844 "/></g></g><g clip-rule="nonzero" clip-path="url(#4d2bb45e3c)"><g clip-rule="nonzero" clip-path="url(#559b26dc6c)"><path style="fill:none;stroke-width:6;stroke-linecap:butt;stroke-linejoin:miter;stroke:#05685e;stroke-opacity:1;stroke-miterlimit:4;" d="M 243.005529 0.00109767 C 108.798075 0.00109767 -0.00231003 108.796274 -0.00231003 243.008937 C -0.00231003 377.216391 108.798075 486.016775 243.005529 486.016775 C 377.218192 486.016775 486.013368 377.216391 486.013368 243.008937 C 486.013368 108.796274 377.218192 0.00109767 243.005529 0.00109767 Z M 243.005529 0.00109767 " transform="matrix(0.749976,0,0,0.749976,4.49392,6.589021)"/></g></g><g clip-rule="nonzero" clip-path="url(#3243514db2)"><path style=" stroke:none;fill-rule:nonzero;fill:#e3a72f;fill-opacity:1;" d="M 104.882812 248.175781 L 32.941406 248.175781 C 26.597656 248.175781 21.449219 243.03125 21.449219 236.683594 L 21.449219 165.308594 C 21.449219 158.960938 26.597656 153.8125 32.941406 153.8125 L 104.882812 153.8125 C 111.230469 153.8125 116.375 148.671875 116.375 142.324219 L 116.375 68.695312 C 116.375 62.351562 121.519531 57.203125 127.867188 57.203125 L 202.617188 57.203125 C 208.960938 57.203125 214.109375 62.351562 214.109375 68.695312 L 214.109375 142.324219 C 214.109375 148.671875 219.253906 153.8125 225.601562 153.8125 L 297.539062 153.8125 C 303.886719 153.8125 309.03125 158.960938 309.03125 165.308594 L 309.03125 236.683594 C 309.03125 243.03125 303.886719 248.175781 297.539062 248.175781 L 225.601562 248.175781 C 219.253906 248.175781 214.109375 253.324219 214.109375 259.667969 L 214.109375 333.292969 C 214.109375 339.640625 208.960938 344.785156 202.617188 344.785156 L 127.867188 344.785156 C 121.519531 344.785156 116.375 339.640625 116.375 333.292969 L 116.375 259.667969 C 116.375 253.324219 111.230469 248.175781 104.882812 248.175781 "/></g><g clip-rule="nonzero" clip-path="url(#55e4dc7305)"><path style=" stroke:none;fill-rule:nonzero;fill:#d0ebe8;fill-opacity:1;" d="M 343.539062 128.511719 L 343.539062 222.871094 C 343.539062 226.046875 340.964844 228.621094 337.785156 228.621094 L 248.609375 228.621094 L 248.609375 319.480469 C 248.609375 322.660156 246.035156 325.234375 242.859375 325.234375 L 145.132812 325.234375 C 141.953125 325.234375 139.378906 322.660156 139.378906 319.480469 L 139.378906 228.621094 L 50.207031 228.621094 C 47.03125 228.621094 44.453125 226.046875 44.453125 222.871094 L 44.453125 128.511719 C 44.453125 125.332031 47.03125 122.757812 50.207031 122.757812 L 139.378906 122.757812 L 139.378906 31.902344 C 139.378906 28.722656 141.953125 26.148438 145.132812 26.148438 L 242.859375 26.148438 C 246.035156 26.148438 248.609375 28.722656 248.609375 31.902344 L 248.609375 97.914062 C 248.609375 101.089844 246.035156 103.664062 242.859375 103.664062 C 239.683594 103.664062 237.109375 101.089844 237.109375 97.914062 L 237.109375 37.652344 L 150.882812 37.652344 L 150.882812 128.511719 C 150.882812 131.6875 148.308594 134.261719 145.132812 134.261719 L 55.957031 134.261719 L 55.957031 217.117188 L 145.132812 217.117188 C 148.308594 217.117188 150.882812 219.691406 150.882812 222.871094 L 150.882812 313.730469 L 237.109375 313.730469 L 237.109375 222.871094 C 237.109375 219.691406 239.683594 217.117188 242.859375 217.117188 L 332.035156 217.117188 L 332.035156 134.261719 L 242.859375 134.261719 C 183.261719 134.261719 161.394531 182.078125 156.109375 196.734375 C 155.265625 199.082031 153.054688 200.539062 150.699219 200.539062 C 150.050781 200.539062 149.394531 200.429688 148.75 200.199219 C 145.761719 199.121094 144.210938 195.824219 145.289062 192.835938 C 148.390625 184.234375 152.476562 176.027344 157.4375 168.453125 C 163.085938 159.828125 169.746094 152.230469 177.234375 145.863281 C 185.703125 138.664062 195.234375 133.0625 205.5625 129.203125 C 217.011719 124.925781 229.558594 122.757812 242.859375 122.757812 L 337.785156 122.757812 C 340.964844 122.757812 343.539062 125.332031 343.539062 128.511719 "/></g></g></svg>